<mxfile host="Electron" modified="2024-01-25T05:42:24.397Z" agent="Mozilla/5.0 (X11; Linux x86_64) AppleWebKit/537.36 (KHTML, like Gecko) draw.io/22.1.21 Chrome/120.0.6099.109 Electron/28.1.0 Safari/537.36" etag="3ZBGASkwym2afKfyAXyt" version="22.1.21" type="device">
  <diagram name="Page-1" id="UUoSJ3OlAOSEx1XxmTXb">
    <mxGraphModel dx="2954" dy="-970" grid="0" gridSize="10" guides="1" tooltips="1" connect="1" arrows="1" fold="1" page="1" pageScale="1" pageWidth="850" pageHeight="1100" math="0" shadow="0">
      <root>
        <mxCell id="0" />
        <mxCell id="1" parent="0" />
        <mxCell id="JdY3IFnZqVG4KHtJM42W-1" value="" style="shape=actor;whiteSpace=wrap;html=1;sketch=1;hachureGap=4;jiggle=2;curveFitting=1;fontFamily=Architects Daughter;fontSource=https%3A%2F%2Ffonts.googleapis.com%2Fcss%3Ffamily%3DArchitects%2BDaughter;fontSize=20;fillColor=#d5e8d4;strokeColor=#82b366;" parent="1" vertex="1">
          <mxGeometry x="862" y="2757" width="94" height="132" as="geometry" />
        </mxCell>
        <mxCell id="JdY3IFnZqVG4KHtJM42W-2" value="&lt;font style=&quot;font-size: 16px;&quot;&gt;Populate the types_per_batch and shares table with reference to the batches table filled by the dealer.&lt;/font&gt;" style="rounded=0;whiteSpace=wrap;html=1;sketch=1;hachureGap=4;jiggle=2;curveFitting=1;fontFamily=Architects Daughter;fontSource=https%3A%2F%2Ffonts.googleapis.com%2Fcss%3Ffamily%3DArchitects%2BDaughter;fontSize=20;fillColor=#dae8fc;strokeColor=#6c8ebf;" parent="1" vertex="1">
          <mxGeometry x="1058" y="2761" width="212" height="124" as="geometry" />
        </mxCell>
        <mxCell id="JdY3IFnZqVG4KHtJM42W-3" value="" style="endArrow=classic;html=1;rounded=0;sketch=1;hachureGap=4;jiggle=2;curveFitting=1;fontFamily=Architects Daughter;fontSource=https%3A%2F%2Ffonts.googleapis.com%2Fcss%3Ffamily%3DArchitects%2BDaughter;fontSize=16;exitX=0.9;exitY=0.5;exitDx=0;exitDy=0;exitPerimeter=0;entryX=0;entryY=0.5;entryDx=0;entryDy=0;" parent="1" source="JdY3IFnZqVG4KHtJM42W-1" target="JdY3IFnZqVG4KHtJM42W-2" edge="1">
          <mxGeometry width="50" height="50" relative="1" as="geometry">
            <mxPoint x="1163" y="3277.5" as="sourcePoint" />
            <mxPoint x="1213" y="3227.5" as="targetPoint" />
          </mxGeometry>
        </mxCell>
        <mxCell id="JdY3IFnZqVG4KHtJM42W-12" value="" style="shape=actor;whiteSpace=wrap;html=1;sketch=1;hachureGap=4;jiggle=2;curveFitting=1;fontFamily=Architects Daughter;fontSource=https%3A%2F%2Ffonts.googleapis.com%2Fcss%3Ffamily%3DArchitects%2BDaughter;fontSize=20;fillColor=#b1ddf0;strokeColor=#10739e;" parent="1" vertex="1">
          <mxGeometry x="355" y="3531.5" width="94" height="132" as="geometry" />
        </mxCell>
        <mxCell id="JdY3IFnZqVG4KHtJM42W-13" value="Client" style="text;html=1;align=center;verticalAlign=middle;resizable=0;points=[];autosize=1;strokeColor=none;fillColor=none;fontSize=20;fontFamily=Architects Daughter;" parent="1" vertex="1">
          <mxGeometry x="280" y="3606.5" width="67" height="36" as="geometry" />
        </mxCell>
        <mxCell id="JdY3IFnZqVG4KHtJM42W-14" value="" style="shape=actor;whiteSpace=wrap;html=1;sketch=1;hachureGap=4;jiggle=2;curveFitting=1;fontFamily=Architects Daughter;fontSource=https%3A%2F%2Ffonts.googleapis.com%2Fcss%3Ffamily%3DArchitects%2BDaughter;fontSize=20;fillColor=#f8cecc;strokeColor=#b85450;" parent="1" vertex="1">
          <mxGeometry x="357" y="3193.5" width="92" height="132" as="geometry" />
        </mxCell>
        <mxCell id="JdY3IFnZqVG4KHtJM42W-15" value="Model Owner" style="text;html=1;align=center;verticalAlign=middle;resizable=0;points=[];autosize=1;strokeColor=none;fillColor=none;fontSize=20;fontFamily=Architects Daughter;" parent="1" vertex="1">
          <mxGeometry x="220" y="3251" width="139" height="36" as="geometry" />
        </mxCell>
        <mxCell id="JdY3IFnZqVG4KHtJM42W-16" value="model_id" style="text;html=1;align=center;verticalAlign=middle;resizable=0;points=[];autosize=1;strokeColor=none;fillColor=none;fontSize=20;fontFamily=Architects Daughter;" parent="1" vertex="1">
          <mxGeometry x="273.5" y="3410.5" width="96" height="36" as="geometry" />
        </mxCell>
        <mxCell id="JdY3IFnZqVG4KHtJM42W-17" value="" style="endArrow=classic;html=1;rounded=0;sketch=1;hachureGap=4;jiggle=2;curveFitting=1;fontFamily=Architects Daughter;fontSource=https%3A%2F%2Ffonts.googleapis.com%2Fcss%3Ffamily%3DArchitects%2BDaughter;fontSize=16;exitX=0.5;exitY=0;exitDx=0;exitDy=0;entryX=0.5;entryY=1;entryDx=0;entryDy=0;" parent="1" source="JdY3IFnZqVG4KHtJM42W-12" target="JdY3IFnZqVG4KHtJM42W-14" edge="1">
          <mxGeometry relative="1" as="geometry">
            <mxPoint x="946" y="3568.5" as="sourcePoint" />
            <mxPoint x="1046" y="3568.5" as="targetPoint" />
          </mxGeometry>
        </mxCell>
        <mxCell id="JdY3IFnZqVG4KHtJM42W-18" value="" style="shape=message;html=1;outlineConnect=0;sketch=1;hachureGap=4;jiggle=2;curveFitting=1;fontFamily=Architects Daughter;fontSource=https%3A%2F%2Ffonts.googleapis.com%2Fcss%3Ffamily%3DArchitects%2BDaughter;fontSize=20;fillColor=#fff2cc;strokeColor=#d6b656;" parent="JdY3IFnZqVG4KHtJM42W-17" vertex="1">
          <mxGeometry width="20" height="14" relative="1" as="geometry">
            <mxPoint x="-10" y="-7" as="offset" />
          </mxGeometry>
        </mxCell>
        <mxCell id="JdY3IFnZqVG4KHtJM42W-19" value="" style="endArrow=classic;html=1;rounded=0;sketch=1;hachureGap=4;jiggle=2;curveFitting=1;fontFamily=Architects Daughter;fontSource=https%3A%2F%2Ffonts.googleapis.com%2Fcss%3Ffamily%3DArchitects%2BDaughter;fontSize=16;exitX=0.9;exitY=0.5;exitDx=0;exitDy=0;exitPerimeter=0;" parent="1" source="JdY3IFnZqVG4KHtJM42W-14" target="JdY3IFnZqVG4KHtJM42W-76" edge="1">
          <mxGeometry relative="1" as="geometry">
            <mxPoint x="442" y="3352.5" as="sourcePoint" />
            <mxPoint x="399.01199999999994" y="3062.5" as="targetPoint" />
          </mxGeometry>
        </mxCell>
        <mxCell id="JdY3IFnZqVG4KHtJM42W-22" value="" style="shape=actor;whiteSpace=wrap;html=1;sketch=1;hachureGap=4;jiggle=2;curveFitting=1;fontFamily=Architects Daughter;fontSource=https%3A%2F%2Ffonts.googleapis.com%2Fcss%3Ffamily%3DArchitects%2BDaughter;fontSize=20;fillColor=#f8cecc;strokeColor=#b85450;" parent="1" vertex="1">
          <mxGeometry x="896" y="3194.75" width="92" height="132" as="geometry" />
        </mxCell>
        <mxCell id="JdY3IFnZqVG4KHtJM42W-23" value="Model Owner" style="text;html=1;align=center;verticalAlign=middle;resizable=0;points=[];autosize=1;strokeColor=none;fillColor=none;fontSize=20;fontFamily=Architects Daughter;" parent="1" vertex="1">
          <mxGeometry x="997" y="3267" width="139" height="36" as="geometry" />
        </mxCell>
        <mxCell id="JdY3IFnZqVG4KHtJM42W-27" value="" style="shape=actor;whiteSpace=wrap;html=1;sketch=1;hachureGap=4;jiggle=2;curveFitting=1;fontFamily=Architects Daughter;fontSource=https%3A%2F%2Ffonts.googleapis.com%2Fcss%3Ffamily%3DArchitects%2BDaughter;fontSize=20;fillColor=#f8cecc;strokeColor=#b85450;" parent="1" vertex="1">
          <mxGeometry x="1244" y="3555" width="92" height="132" as="geometry" />
        </mxCell>
        <mxCell id="JdY3IFnZqVG4KHtJM42W-28" style="edgeStyle=orthogonalEdgeStyle;rounded=0;sketch=1;hachureGap=4;jiggle=2;curveFitting=1;orthogonalLoop=1;jettySize=auto;html=1;exitX=0.9;exitY=0.5;exitDx=0;exitDy=0;exitPerimeter=0;fontFamily=Architects Daughter;fontSource=https%3A%2F%2Ffonts.googleapis.com%2Fcss%3Ffamily%3DArchitects%2BDaughter;fontSize=16;" parent="1" source="JdY3IFnZqVG4KHtJM42W-29" target="JdY3IFnZqVG4KHtJM42W-35" edge="1">
          <mxGeometry relative="1" as="geometry">
            <mxPoint x="1763" y="3300" as="targetPoint" />
          </mxGeometry>
        </mxCell>
        <mxCell id="JdY3IFnZqVG4KHtJM42W-29" value="" style="shape=actor;whiteSpace=wrap;html=1;sketch=1;hachureGap=4;jiggle=2;curveFitting=1;fontFamily=Architects Daughter;fontSource=https%3A%2F%2Ffonts.googleapis.com%2Fcss%3Ffamily%3DArchitects%2BDaughter;fontSize=20;fillColor=#d5e8d4;strokeColor=#82b366;" parent="1" vertex="1">
          <mxGeometry x="1240" y="3195" width="94" height="132" as="geometry" />
        </mxCell>
        <mxCell id="JdY3IFnZqVG4KHtJM42W-30" value="Dealers" style="text;html=1;align=center;verticalAlign=middle;resizable=0;points=[];autosize=1;strokeColor=none;fillColor=none;fontSize=20;fontFamily=Architects Daughter;" parent="1" vertex="1">
          <mxGeometry x="1344" y="3287" width="87" height="36" as="geometry" />
        </mxCell>
        <mxCell id="JdY3IFnZqVG4KHtJM42W-31" value="Model Owner" style="text;html=1;align=center;verticalAlign=middle;resizable=0;points=[];autosize=1;strokeColor=none;fillColor=none;fontSize=20;fontFamily=Architects Daughter;" parent="1" vertex="1">
          <mxGeometry x="1362" y="3613" width="139" height="36" as="geometry" />
        </mxCell>
        <mxCell id="JdY3IFnZqVG4KHtJM42W-32" value="" style="endArrow=classic;html=1;rounded=0;sketch=1;hachureGap=4;jiggle=2;curveFitting=1;fontFamily=Architects Daughter;fontSource=https%3A%2F%2Ffonts.googleapis.com%2Fcss%3Ffamily%3DArchitects%2BDaughter;fontSize=16;exitX=0.5;exitY=0;exitDx=0;exitDy=0;entryX=0.5;entryY=1;entryDx=0;entryDy=0;" parent="1" source="JdY3IFnZqVG4KHtJM42W-27" target="JdY3IFnZqVG4KHtJM42W-29" edge="1">
          <mxGeometry relative="1" as="geometry">
            <mxPoint x="508" y="3716" as="sourcePoint" />
            <mxPoint x="608" y="3716" as="targetPoint" />
          </mxGeometry>
        </mxCell>
        <mxCell id="JdY3IFnZqVG4KHtJM42W-33" value="" style="shape=message;html=1;outlineConnect=0;sketch=1;hachureGap=4;jiggle=2;curveFitting=1;fontFamily=Architects Daughter;fontSource=https%3A%2F%2Ffonts.googleapis.com%2Fcss%3Ffamily%3DArchitects%2BDaughter;fontSize=20;fillColor=#fff2cc;strokeColor=#d6b656;" parent="JdY3IFnZqVG4KHtJM42W-32" vertex="1">
          <mxGeometry width="20" height="14" relative="1" as="geometry">
            <mxPoint x="-10" y="-7" as="offset" />
          </mxGeometry>
        </mxCell>
        <mxCell id="JdY3IFnZqVG4KHtJM42W-34" value="Send batch_id to dealer&lt;br&gt;and request for shares!" style="text;html=1;align=center;verticalAlign=middle;resizable=0;points=[];autosize=1;strokeColor=none;fillColor=none;fontSize=20;fontFamily=Architects Daughter;" parent="1" vertex="1">
          <mxGeometry x="1307" y="3436" width="243" height="60" as="geometry" />
        </mxCell>
        <mxCell id="JdY3IFnZqVG4KHtJM42W-35" value="&lt;font style=&quot;font-size: 16px;&quot;&gt;Looks for batch_id in types_per_batch table and if it finds it then creates a response of the format&lt;br&gt;&amp;nbsp;[Mac_key_share&lt;br&gt;Triple_type-1&lt;br&gt;share, mac_share&lt;br&gt;.&lt;br&gt;.&lt;br&gt;.&lt;br&gt;Triple_type-2&lt;br&gt;share, mac_share&lt;br&gt;.&lt;br&gt;.&lt;br&gt;Triple_type-3.......]&lt;/font&gt;" style="rounded=1;whiteSpace=wrap;html=1;sketch=1;hachureGap=4;jiggle=2;curveFitting=1;fontFamily=Architects Daughter;fontSource=https%3A%2F%2Ffonts.googleapis.com%2Fcss%3Ffamily%3DArchitects%2BDaughter;fontSize=20;" parent="1" vertex="1">
          <mxGeometry x="1492" y="3080.5" width="448" height="326" as="geometry" />
        </mxCell>
        <mxCell id="JdY3IFnZqVG4KHtJM42W-36" value="" style="shape=actor;whiteSpace=wrap;html=1;sketch=1;hachureGap=4;jiggle=2;curveFitting=1;fontFamily=Architects Daughter;fontSource=https%3A%2F%2Ffonts.googleapis.com%2Fcss%3Ffamily%3DArchitects%2BDaughter;fontSize=20;fillColor=#b1ddf0;strokeColor=#10739e;" parent="1" vertex="1">
          <mxGeometry x="2426" y="3182.5" width="94" height="132" as="geometry" />
        </mxCell>
        <mxCell id="JdY3IFnZqVG4KHtJM42W-37" value="Client" style="text;html=1;align=center;verticalAlign=middle;resizable=0;points=[];autosize=1;strokeColor=none;fillColor=none;fontSize=20;fontFamily=Architects Daughter;" parent="1" vertex="1">
          <mxGeometry x="2355" y="3246" width="67" height="36" as="geometry" />
        </mxCell>
        <mxCell id="JdY3IFnZqVG4KHtJM42W-38" value="" style="endArrow=classic;html=1;rounded=0;sketch=1;hachureGap=4;jiggle=2;curveFitting=1;fontFamily=Architects Daughter;fontSource=https%3A%2F%2Ffonts.googleapis.com%2Fcss%3Ffamily%3DArchitects%2BDaughter;fontSize=16;exitX=0.5;exitY=1;exitDx=0;exitDy=0;entryX=0.5;entryY=0;entryDx=0;entryDy=0;" parent="1" source="JdY3IFnZqVG4KHtJM42W-36" target="JdY3IFnZqVG4KHtJM42W-40" edge="1">
          <mxGeometry relative="1" as="geometry">
            <mxPoint x="1022" y="3693.5" as="sourcePoint" />
            <mxPoint x="1122" y="3693.5" as="targetPoint" />
            <Array as="points" />
          </mxGeometry>
        </mxCell>
        <mxCell id="JdY3IFnZqVG4KHtJM42W-39" value="" style="shape=message;html=1;outlineConnect=0;sketch=1;hachureGap=4;jiggle=2;curveFitting=1;fontFamily=Architects Daughter;fontSource=https%3A%2F%2Ffonts.googleapis.com%2Fcss%3Ffamily%3DArchitects%2BDaughter;fontSize=20;fillColor=#fff2cc;strokeColor=#d6b656;" parent="JdY3IFnZqVG4KHtJM42W-38" vertex="1">
          <mxGeometry width="20" height="14" relative="1" as="geometry">
            <mxPoint x="-10" y="-7" as="offset" />
          </mxGeometry>
        </mxCell>
        <mxCell id="JdY3IFnZqVG4KHtJM42W-40" value="" style="shape=actor;whiteSpace=wrap;html=1;sketch=1;hachureGap=4;jiggle=2;curveFitting=1;fontFamily=Architects Daughter;fontSource=https%3A%2F%2Ffonts.googleapis.com%2Fcss%3Ffamily%3DArchitects%2BDaughter;fontSize=20;fillColor=#d5e8d4;strokeColor=#82b366;" parent="1" vertex="1">
          <mxGeometry x="2432" y="3524.5" width="94" height="134" as="geometry" />
        </mxCell>
        <mxCell id="JdY3IFnZqVG4KHtJM42W-41" value="Dealer" style="text;html=1;align=center;verticalAlign=middle;resizable=0;points=[];autosize=1;strokeColor=none;fillColor=none;fontSize=20;fontFamily=Architects Daughter;" parent="1" vertex="1">
          <mxGeometry x="2355" y="3575.5" width="77" height="36" as="geometry" />
        </mxCell>
        <mxCell id="JdY3IFnZqVG4KHtJM42W-42" value="Makes request for &lt;br&gt;seed&amp;nbsp;and mac_key_mask&lt;br&gt;&amp;nbsp;from dealer" style="text;html=1;align=center;verticalAlign=middle;resizable=0;points=[];autosize=1;strokeColor=none;fillColor=none;fontSize=20;fontFamily=Architects Daughter;" parent="1" vertex="1">
          <mxGeometry x="2491" y="3416" width="254" height="84" as="geometry" />
        </mxCell>
        <mxCell id="JdY3IFnZqVG4KHtJM42W-43" value="" style="shape=actor;whiteSpace=wrap;html=1;sketch=1;hachureGap=4;jiggle=2;curveFitting=1;fontFamily=Architects Daughter;fontSource=https%3A%2F%2Ffonts.googleapis.com%2Fcss%3Ffamily%3DArchitects%2BDaughter;fontSize=20;fillColor=#d5e8d4;strokeColor=#82b366;" parent="1" vertex="1">
          <mxGeometry x="2824" y="3526.5" width="94" height="134" as="geometry" />
        </mxCell>
        <mxCell id="JdY3IFnZqVG4KHtJM42W-44" value="Dealer" style="text;html=1;align=center;verticalAlign=middle;resizable=0;points=[];autosize=1;strokeColor=none;fillColor=none;fontSize=20;fontFamily=Architects Daughter;" parent="1" vertex="1">
          <mxGeometry x="2916" y="3579.5" width="77" height="36" as="geometry" />
        </mxCell>
        <mxCell id="JdY3IFnZqVG4KHtJM42W-45" style="edgeStyle=orthogonalEdgeStyle;rounded=0;sketch=1;hachureGap=4;jiggle=2;curveFitting=1;orthogonalLoop=1;jettySize=auto;html=1;exitX=0.9;exitY=0.5;exitDx=0;exitDy=0;exitPerimeter=0;entryX=0;entryY=0.5;entryDx=0;entryDy=0;fontFamily=Architects Daughter;fontSource=https%3A%2F%2Ffonts.googleapis.com%2Fcss%3Ffamily%3DArchitects%2BDaughter;fontSize=16;" parent="1" source="JdY3IFnZqVG4KHtJM42W-46" target="JdY3IFnZqVG4KHtJM42W-51" edge="1">
          <mxGeometry relative="1" as="geometry" />
        </mxCell>
        <mxCell id="JdY3IFnZqVG4KHtJM42W-46" value="" style="shape=actor;whiteSpace=wrap;html=1;sketch=1;hachureGap=4;jiggle=2;curveFitting=1;fontFamily=Architects Daughter;fontSource=https%3A%2F%2Ffonts.googleapis.com%2Fcss%3Ffamily%3DArchitects%2BDaughter;fontSize=20;fillColor=#b1ddf0;strokeColor=#10739e;" parent="1" vertex="1">
          <mxGeometry x="2820" y="3184.5" width="94" height="132" as="geometry" />
        </mxCell>
        <mxCell id="JdY3IFnZqVG4KHtJM42W-47" value="Client" style="text;html=1;align=center;verticalAlign=middle;resizable=0;points=[];autosize=1;strokeColor=none;fillColor=none;fontSize=20;fontFamily=Architects Daughter;" parent="1" vertex="1">
          <mxGeometry x="2914" y="3259.5" width="67" height="36" as="geometry" />
        </mxCell>
        <mxCell id="JdY3IFnZqVG4KHtJM42W-48" value="" style="endArrow=classic;html=1;rounded=0;sketch=1;hachureGap=4;jiggle=2;curveFitting=1;fontFamily=Architects Daughter;fontSource=https%3A%2F%2Ffonts.googleapis.com%2Fcss%3Ffamily%3DArchitects%2BDaughter;fontSize=16;exitX=0.5;exitY=0;exitDx=0;exitDy=0;entryX=0.5;entryY=1;entryDx=0;entryDy=0;" parent="1" source="JdY3IFnZqVG4KHtJM42W-43" target="JdY3IFnZqVG4KHtJM42W-46" edge="1">
          <mxGeometry relative="1" as="geometry">
            <mxPoint x="2516" y="3921.5" as="sourcePoint" />
            <mxPoint x="2616" y="3921.5" as="targetPoint" />
          </mxGeometry>
        </mxCell>
        <mxCell id="JdY3IFnZqVG4KHtJM42W-49" value="" style="shape=message;html=1;outlineConnect=0;sketch=1;hachureGap=4;jiggle=2;curveFitting=1;fontFamily=Architects Daughter;fontSource=https%3A%2F%2Ffonts.googleapis.com%2Fcss%3Ffamily%3DArchitects%2BDaughter;fontSize=20;fillColor=#fff2cc;strokeColor=#d6b656;" parent="JdY3IFnZqVG4KHtJM42W-48" vertex="1">
          <mxGeometry width="20" height="14" relative="1" as="geometry">
            <mxPoint x="-10" y="-7" as="offset" />
          </mxGeometry>
        </mxCell>
        <mxCell id="JdY3IFnZqVG4KHtJM42W-50" value="Sends seed back &lt;br&gt;after checking db" style="text;html=1;align=center;verticalAlign=middle;resizable=0;points=[];autosize=1;strokeColor=none;fillColor=none;fontSize=20;fontFamily=Architects Daughter;" parent="1" vertex="1">
          <mxGeometry x="2891" y="3435.5" width="189" height="60" as="geometry" />
        </mxCell>
        <mxCell id="JdY3IFnZqVG4KHtJM42W-51" value="2PC Shares" style="rounded=1;whiteSpace=wrap;html=1;sketch=1;hachureGap=4;jiggle=2;curveFitting=1;fontFamily=Architects Daughter;fontSource=https%3A%2F%2Ffonts.googleapis.com%2Fcss%3Ffamily%3DArchitects%2BDaughter;fontSize=20;" parent="1" vertex="1">
          <mxGeometry x="3042" y="3220.5" width="120" height="60" as="geometry" />
        </mxCell>
        <mxCell id="JdY3IFnZqVG4KHtJM42W-52" value="" style="endArrow=classic;html=1;rounded=0;sketch=1;hachureGap=4;jiggle=2;curveFitting=1;fontFamily=Architects Daughter;fontSource=https%3A%2F%2Ffonts.googleapis.com%2Fcss%3Ffamily%3DArchitects%2BDaughter;fontSize=16;exitX=0.5;exitY=1;exitDx=0;exitDy=0;entryX=0.5;entryY=0;entryDx=0;entryDy=0;" parent="1" source="JdY3IFnZqVG4KHtJM42W-83" target="JdY3IFnZqVG4KHtJM42W-55" edge="1">
          <mxGeometry relative="1" as="geometry">
            <mxPoint x="2482" y="3542" as="sourcePoint" />
            <mxPoint x="2015" y="3558" as="targetPoint" />
          </mxGeometry>
        </mxCell>
        <mxCell id="JdY3IFnZqVG4KHtJM42W-53" value="" style="shape=message;html=1;outlineConnect=0;sketch=1;hachureGap=4;jiggle=2;curveFitting=1;fontFamily=Architects Daughter;fontSource=https%3A%2F%2Ffonts.googleapis.com%2Fcss%3Ffamily%3DArchitects%2BDaughter;fontSize=20;fillColor=#fff2cc;strokeColor=#d6b656;" parent="JdY3IFnZqVG4KHtJM42W-52" vertex="1">
          <mxGeometry width="20" height="14" relative="1" as="geometry">
            <mxPoint x="-10" y="-7" as="offset" />
          </mxGeometry>
        </mxCell>
        <mxCell id="JdY3IFnZqVG4KHtJM42W-54" value="Sends shares&lt;br&gt;back to MO!" style="text;html=1;align=center;verticalAlign=middle;resizable=0;points=[];autosize=1;strokeColor=none;fillColor=none;fontSize=20;fontFamily=Architects Daughter;" parent="1" vertex="1">
          <mxGeometry x="2123" y="3407" width="142" height="60" as="geometry" />
        </mxCell>
        <mxCell id="JdY3IFnZqVG4KHtJM42W-55" value="" style="shape=actor;whiteSpace=wrap;html=1;sketch=1;hachureGap=4;jiggle=2;curveFitting=1;fontFamily=Architects Daughter;fontSource=https%3A%2F%2Ffonts.googleapis.com%2Fcss%3Ffamily%3DArchitects%2BDaughter;fontSize=20;fillColor=#f8cecc;strokeColor=#b85450;" parent="1" vertex="1">
          <mxGeometry x="2043" y="3526.5" width="92" height="132" as="geometry" />
        </mxCell>
        <mxCell id="JdY3IFnZqVG4KHtJM42W-56" value="Model Owner" style="text;html=1;align=center;verticalAlign=middle;resizable=0;points=[];autosize=1;strokeColor=none;fillColor=none;fontSize=20;fontFamily=Architects Daughter;" parent="1" vertex="1">
          <mxGeometry x="2143" y="3588" width="139" height="36" as="geometry" />
        </mxCell>
        <mxCell id="JdY3IFnZqVG4KHtJM42W-57" style="edgeStyle=orthogonalEdgeStyle;rounded=0;sketch=1;hachureGap=4;jiggle=2;curveFitting=1;orthogonalLoop=1;jettySize=auto;html=1;exitX=0.9;exitY=0.5;exitDx=0;exitDy=0;exitPerimeter=0;entryX=0.1;entryY=0.5;entryDx=0;entryDy=0;entryPerimeter=0;fontFamily=Architects Daughter;fontSource=https%3A%2F%2Ffonts.googleapis.com%2Fcss%3Ffamily%3DArchitects%2BDaughter;fontSize=16;" parent="1" source="JdY3IFnZqVG4KHtJM42W-40" target="JdY3IFnZqVG4KHtJM42W-43" edge="1">
          <mxGeometry relative="1" as="geometry" />
        </mxCell>
        <mxCell id="JdY3IFnZqVG4KHtJM42W-58" value="" style="endArrow=classic;html=1;rounded=0;sketch=1;hachureGap=4;jiggle=2;curveFitting=1;fontFamily=Architects Daughter;fontSource=https%3A%2F%2Ffonts.googleapis.com%2Fcss%3Ffamily%3DArchitects%2BDaughter;fontSize=16;exitX=0.5;exitY=1;exitDx=0;exitDy=0;entryX=0.5;entryY=0;entryDx=0;entryDy=0;" parent="1" source="JdY3IFnZqVG4KHtJM42W-22" target="JdY3IFnZqVG4KHtJM42W-61" edge="1">
          <mxGeometry relative="1" as="geometry">
            <mxPoint x="1652" y="3171.5" as="sourcePoint" />
            <mxPoint x="942" y="3507.5" as="targetPoint" />
          </mxGeometry>
        </mxCell>
        <mxCell id="JdY3IFnZqVG4KHtJM42W-59" value="" style="shape=message;html=1;outlineConnect=0;sketch=1;hachureGap=4;jiggle=2;curveFitting=1;fontFamily=Architects Daughter;fontSource=https%3A%2F%2Ffonts.googleapis.com%2Fcss%3Ffamily%3DArchitects%2BDaughter;fontSize=20;fillColor=#fff2cc;strokeColor=#d6b656;" parent="JdY3IFnZqVG4KHtJM42W-58" vertex="1">
          <mxGeometry width="20" height="14" relative="1" as="geometry">
            <mxPoint x="-10" y="-7" as="offset" />
          </mxGeometry>
        </mxCell>
        <mxCell id="JdY3IFnZqVG4KHtJM42W-60" value="batch_id" style="text;html=1;align=center;verticalAlign=middle;resizable=0;points=[];autosize=1;strokeColor=none;fillColor=none;fontSize=20;fontFamily=Architects Daughter;" parent="1" vertex="1">
          <mxGeometry x="970" y="3401.5" width="97" height="36" as="geometry" />
        </mxCell>
        <mxCell id="JdY3IFnZqVG4KHtJM42W-61" value="" style="shape=actor;whiteSpace=wrap;html=1;sketch=1;hachureGap=4;jiggle=2;curveFitting=1;fontFamily=Architects Daughter;fontSource=https%3A%2F%2Ffonts.googleapis.com%2Fcss%3Ffamily%3DArchitects%2BDaughter;fontSize=20;fillColor=#b1ddf0;strokeColor=#10739e;" parent="1" vertex="1">
          <mxGeometry x="896" y="3526.5" width="94" height="132" as="geometry" />
        </mxCell>
        <mxCell id="JdY3IFnZqVG4KHtJM42W-62" value="Client" style="text;html=1;align=center;verticalAlign=middle;resizable=0;points=[];autosize=1;strokeColor=none;fillColor=none;fontSize=20;fontFamily=Architects Daughter;" parent="1" vertex="1">
          <mxGeometry x="995" y="3588" width="67" height="36" as="geometry" />
        </mxCell>
        <mxCell id="JdY3IFnZqVG4KHtJM42W-63" value="batch_id" style="text;html=1;align=center;verticalAlign=middle;resizable=0;points=[];autosize=1;strokeColor=none;fillColor=none;fontSize=20;fontFamily=Architects Daughter;" parent="1" vertex="1">
          <mxGeometry x="2358" y="3417.5" width="97" height="36" as="geometry" />
        </mxCell>
        <mxCell id="JdY3IFnZqVG4KHtJM42W-64" value="Dealer" style="text;html=1;align=center;verticalAlign=middle;resizable=0;points=[];autosize=1;strokeColor=none;fillColor=none;fontSize=20;fontFamily=Architects Daughter;" parent="1" vertex="1">
          <mxGeometry x="873" y="2907" width="77" height="36" as="geometry" />
        </mxCell>
        <mxCell id="JdY3IFnZqVG4KHtJM42W-67" value="" style="shape=actor;whiteSpace=wrap;html=1;sketch=1;hachureGap=4;jiggle=2;curveFitting=1;fontFamily=Architects Daughter;fontSource=https%3A%2F%2Ffonts.googleapis.com%2Fcss%3Ffamily%3DArchitects%2BDaughter;fontSize=20;fillColor=#fff2cc;strokeColor=#d6b656;" parent="1" vertex="1">
          <mxGeometry x="644" y="2755" width="93" height="136" as="geometry" />
        </mxCell>
        <mxCell id="JdY3IFnZqVG4KHtJM42W-68" value="Super Dealer" style="text;html=1;align=center;verticalAlign=middle;resizable=0;points=[];autosize=1;strokeColor=none;fillColor=none;fontSize=20;fontFamily=Architects Daughter;" parent="1" vertex="1">
          <mxGeometry x="620.5" y="2903" width="141" height="36" as="geometry" />
        </mxCell>
        <mxCell id="JdY3IFnZqVG4KHtJM42W-69" value="" style="endArrow=classic;html=1;rounded=0;sketch=1;hachureGap=4;jiggle=2;curveFitting=1;fontFamily=Architects Daughter;fontSource=https%3A%2F%2Ffonts.googleapis.com%2Fcss%3Ffamily%3DArchitects%2BDaughter;fontSize=16;entryX=-0.011;entryY=0.435;entryDx=0;entryDy=0;entryPerimeter=0;" parent="1" target="JdY3IFnZqVG4KHtJM42W-70" edge="1">
          <mxGeometry width="50" height="50" relative="1" as="geometry">
            <mxPoint x="174" y="2815.9946496499433" as="sourcePoint" />
            <mxPoint x="1352" y="2851" as="targetPoint" />
            <Array as="points" />
          </mxGeometry>
        </mxCell>
        <mxCell id="JdY3IFnZqVG4KHtJM42W-70" value="&lt;font style=&quot;font-size: 16px;&quot;&gt;Angel requests (Num_batches) for &lt;br&gt;(Model_Id) and super dealer &lt;br&gt;populates the batches&lt;br&gt;table after this request!&lt;/font&gt;" style="text;html=1;align=center;verticalAlign=middle;resizable=0;points=[];autosize=1;strokeColor=#6c8ebf;fillColor=#dae8fc;fontSize=20;fontFamily=Architects Daughter;shadow=0;sketch=1;curveFitting=1;jiggle=2;" parent="1" vertex="1">
          <mxGeometry x="275" y="2769" width="278" height="108" as="geometry" />
        </mxCell>
        <mxCell id="JdY3IFnZqVG4KHtJM42W-71" style="edgeStyle=orthogonalEdgeStyle;rounded=0;sketch=1;hachureGap=4;jiggle=2;curveFitting=1;orthogonalLoop=1;jettySize=auto;html=1;entryX=0.1;entryY=0.5;entryDx=0;entryDy=0;entryPerimeter=0;fontFamily=Architects Daughter;fontSource=https%3A%2F%2Ffonts.googleapis.com%2Fcss%3Ffamily%3DArchitects%2BDaughter;fontSize=16;" parent="1" source="JdY3IFnZqVG4KHtJM42W-70" target="JdY3IFnZqVG4KHtJM42W-67" edge="1">
          <mxGeometry relative="1" as="geometry" />
        </mxCell>
        <mxCell id="JdY3IFnZqVG4KHtJM42W-72" style="edgeStyle=orthogonalEdgeStyle;rounded=0;sketch=1;hachureGap=4;jiggle=2;curveFitting=1;orthogonalLoop=1;jettySize=auto;html=1;entryX=0.1;entryY=0.5;entryDx=0;entryDy=0;entryPerimeter=0;fontFamily=Architects Daughter;fontSource=https%3A%2F%2Ffonts.googleapis.com%2Fcss%3Ffamily%3DArchitects%2BDaughter;fontSize=16;" parent="1" source="JdY3IFnZqVG4KHtJM42W-67" target="JdY3IFnZqVG4KHtJM42W-1" edge="1">
          <mxGeometry relative="1" as="geometry" />
        </mxCell>
        <mxCell id="JdY3IFnZqVG4KHtJM42W-75" value="&lt;font style=&quot;font-size: 26px;&quot;&gt;Background Process&lt;/font&gt;" style="text;html=1;align=center;verticalAlign=middle;resizable=0;points=[];autosize=1;strokeColor=none;fillColor=none;fontSize=20;fontFamily=Architects Daughter;" parent="1" vertex="1">
          <mxGeometry x="552.5" y="2641" width="277" height="43" as="geometry" />
        </mxCell>
        <mxCell id="JdY3IFnZqVG4KHtJM42W-79" style="edgeStyle=orthogonalEdgeStyle;rounded=0;sketch=1;hachureGap=4;jiggle=2;curveFitting=1;orthogonalLoop=1;jettySize=auto;html=1;exitX=0.5;exitY=1;exitDx=0;exitDy=0;fontFamily=Architects Daughter;fontSource=https%3A%2F%2Ffonts.googleapis.com%2Fcss%3Ffamily%3DArchitects%2BDaughter;fontSize=16;" parent="1" source="JdY3IFnZqVG4KHtJM42W-76" target="JdY3IFnZqVG4KHtJM42W-80" edge="1">
          <mxGeometry relative="1" as="geometry">
            <mxPoint x="704" y="3407.5" as="targetPoint" />
          </mxGeometry>
        </mxCell>
        <mxCell id="JdY3IFnZqVG4KHtJM42W-76" value="&lt;span style=&quot;font-size: 16px;&quot;&gt;Checks if batch_id is available or not and if it is then sends it&lt;/span&gt;" style="rounded=1;whiteSpace=wrap;html=1;sketch=1;hachureGap=4;jiggle=2;curveFitting=1;fontFamily=Architects Daughter;fontSource=https%3A%2F%2Ffonts.googleapis.com%2Fcss%3Ffamily%3DArchitects%2BDaughter;fontSize=20;fillColor=#dae8fc;strokeColor=#6c8ebf;" parent="1" vertex="1">
          <mxGeometry x="627" y="3180" width="154" height="161.5" as="geometry" />
        </mxCell>
        <mxCell id="JdY3IFnZqVG4KHtJM42W-77" style="edgeStyle=orthogonalEdgeStyle;rounded=0;sketch=1;hachureGap=4;jiggle=2;curveFitting=1;orthogonalLoop=1;jettySize=auto;html=1;exitX=1;exitY=0.5;exitDx=0;exitDy=0;entryX=0.1;entryY=0.5;entryDx=0;entryDy=0;entryPerimeter=0;fontFamily=Architects Daughter;fontSource=https%3A%2F%2Ffonts.googleapis.com%2Fcss%3Ffamily%3DArchitects%2BDaughter;fontSize=16;" parent="1" source="JdY3IFnZqVG4KHtJM42W-76" target="JdY3IFnZqVG4KHtJM42W-22" edge="1">
          <mxGeometry relative="1" as="geometry" />
        </mxCell>
        <mxCell id="JdY3IFnZqVG4KHtJM42W-78" value="present!" style="text;html=1;align=center;verticalAlign=middle;resizable=0;points=[];autosize=1;strokeColor=none;fillColor=none;fontSize=20;fontFamily=Architects Daughter;" parent="1" vertex="1">
          <mxGeometry x="786" y="3225.5" width="93" height="36" as="geometry" />
        </mxCell>
        <mxCell id="JdY3IFnZqVG4KHtJM42W-80" value="&lt;font style=&quot;font-size: 16px;&quot;&gt;Send &quot;Not Possible&quot; Response to client&lt;/font&gt;" style="ellipse;whiteSpace=wrap;html=1;sketch=1;hachureGap=4;jiggle=2;curveFitting=1;fontFamily=Architects Daughter;fontSource=https%3A%2F%2Ffonts.googleapis.com%2Fcss%3Ffamily%3DArchitects%2BDaughter;fontSize=20;fillColor=#f8cecc;strokeColor=#F26F69;" parent="1" vertex="1">
          <mxGeometry x="623" y="3388.5" width="162" height="109" as="geometry" />
        </mxCell>
        <mxCell id="JdY3IFnZqVG4KHtJM42W-81" value="&lt;font style=&quot;font-size: 26px;&quot;&gt;MO-Client interaction&lt;/font&gt;" style="text;html=1;align=center;verticalAlign=middle;resizable=0;points=[];autosize=1;strokeColor=none;fillColor=none;fontSize=20;fontFamily=Architects Daughter;" parent="1" vertex="1">
          <mxGeometry x="577" y="3088" width="267" height="43" as="geometry" />
        </mxCell>
        <mxCell id="JdY3IFnZqVG4KHtJM42W-82" value="&lt;font style=&quot;font-size: 26px;&quot;&gt;MO-Dealer interaction (gRPC)&lt;/font&gt;" style="text;html=1;align=center;verticalAlign=middle;resizable=0;points=[];autosize=1;strokeColor=none;fillColor=none;fontSize=20;fontFamily=Architects Daughter;" parent="1" vertex="1">
          <mxGeometry x="1511" y="3012" width="374" height="43" as="geometry" />
        </mxCell>
        <mxCell id="JdY3IFnZqVG4KHtJM42W-83" value="" style="shape=actor;whiteSpace=wrap;html=1;sketch=1;hachureGap=4;jiggle=2;curveFitting=1;fontFamily=Architects Daughter;fontSource=https%3A%2F%2Ffonts.googleapis.com%2Fcss%3Ffamily%3DArchitects%2BDaughter;fontSize=20;fillColor=#d5e8d4;strokeColor=#82b366;" parent="1" vertex="1">
          <mxGeometry x="2039" y="3191" width="94" height="132" as="geometry" />
        </mxCell>
        <mxCell id="JdY3IFnZqVG4KHtJM42W-84" style="edgeStyle=orthogonalEdgeStyle;rounded=0;sketch=1;hachureGap=4;jiggle=2;curveFitting=1;orthogonalLoop=1;jettySize=auto;html=1;exitX=1;exitY=0.5;exitDx=0;exitDy=0;entryX=0.1;entryY=0.5;entryDx=0;entryDy=0;entryPerimeter=0;fontFamily=Architects Daughter;fontSource=https%3A%2F%2Ffonts.googleapis.com%2Fcss%3Ffamily%3DArchitects%2BDaughter;fontSize=16;" parent="1" source="JdY3IFnZqVG4KHtJM42W-35" target="JdY3IFnZqVG4KHtJM42W-83" edge="1">
          <mxGeometry relative="1" as="geometry" />
        </mxCell>
        <mxCell id="JdY3IFnZqVG4KHtJM42W-86" value="Dealers" style="text;html=1;align=center;verticalAlign=middle;resizable=0;points=[];autosize=1;strokeColor=none;fillColor=none;fontSize=20;fontFamily=Architects Daughter;" parent="1" vertex="1">
          <mxGeometry x="2135" y="3246" width="87" height="36" as="geometry" />
        </mxCell>
        <mxCell id="JdY3IFnZqVG4KHtJM42W-87" value="&lt;font style=&quot;font-size: 26px;&quot;&gt;Client-Dealer interaction&lt;/font&gt;" style="text;html=1;align=center;verticalAlign=middle;resizable=0;points=[];autosize=1;strokeColor=none;fillColor=none;fontSize=20;fontFamily=Architects Daughter;" parent="1" vertex="1">
          <mxGeometry x="2519" y="3084" width="305" height="43" as="geometry" />
        </mxCell>
        <mxCell id="JdY3IFnZqVG4KHtJM42W-88" value="" style="shape=image;aspect=fixed;image=data:image/png,iVBORw0KGgoAAAANSUhEUgAAAgAAAAIACAYAAAD0eNT6AAAACXBIWXMAAA7DAAAOwwHHb6hkAAAAGXRFWHRTb2Z0d2FyZQB3d3cuaW5rc2NhcGUub3Jnm+48GgAAIABJREFUeJzs3Xd8VeX9wPHP3Tt77wTCRkC2gIoTFVxo1SquqrXaWq2t/myrrbZ1tNbaOqvWVbd1MQQRUVGQIXuEhEAGIXsnN7m58/fHjciUcMYdyfN+vfLKDeQ85yvee873POP7gCAIgiAIA44m3AEIgnDczICF4Oc3rvfPbIAR0AOO3j+LBbQHHHfg3x2LG3D2vvYAnb2vvUBH72sf0N77ur3397v7+h8hCEJ4iQRAEELLDCQCSb1fyQRv4rFADGAneJO2A/GH/BzD4Tf1SBMAWgkmA10Ek4X23tddQMsB35uA5t7vB351HNaqIAiKEwmAIMiXBKQB2b3fswje5A+90ScRfFIXfpiHg5ODZqAaqAX2HfK9jmDSIQjCcRIJgCAcnQbIAPKBHCCd4M09Hcjs/bsMgk/1Qnh4gHqgimAyUAXUAOVAGbCn92dBEA4hEgBhoDMTvIkXHOFrKMGudyG6uQkmBnuO8FVDsHdBEAYckQAIA4EBGAwMB4b1fh9K8CafGMa4hMjQBBT1fu0EdvR+r0AMLwj9mEgAhP7EQfDGPpyDb/aDCCYBgnA8nEAxwcRgR+/r7cAugisgBCGqiQRAiFbxwEhg/AFfw4jsGfJC/+AGSoH1h3yJJZBCVBEJgBANMjj4Rj+e4EQ8QYgUXqCEYCKwnWCPwSqCwwuCEJFEAiBEGgcwBpgGTAdOAhLCGpEgSLcHWAl83ft9B2JegRAhRAIghFsBwRv9eII3/XGIbnyh/6oFvuX7hGAd0BPWiIQBSyQAQihpCT7dnw7MBKYSHMsXhIGqi2AS8BXwGcFhA3dYIxIGDJEACGorAM7o/ToNsexOEH5IF8EkYFnv1wbEkIGgEpEACEpL4/ub/ekEK+gJgiBNNfBp79cygtUOBUERIgEQlDAGmAOcD0xAvK8EQQ0BYAuwCPiA4IoD0TsgSCYu1IIURuBUgjf82UBuWKMZIDQaiIs1Y7cZsVkNWK0G4uO+34YgxmFCp/v+I22zGjAadPt/Npv1WMz6/T/r9cG5ll6vf/+fdXV76On5vsaN2+PD2eXZ/7PPF6C9IzhnLRCA1jYXXV0enF0eOp1uWttcBMQtKVT2Ah8STAZWIIoTCcdJJABCX8Xy/VP+2QS3phWOg8WsJznJ+v1XopWkRCuJCZb9N3WH3UhsjAmrxYDNZiAmxoTD3nvDt0RHMcOu7mBC0NHppr29B6cz+HN7Rw/tHT04exOGpuZuGhq7aGzuor6hK/i6qYtulzfc/wnRqAlYQDAZ+BRRlEjoA5EACD/EDJwL/Bg4D7Hr3WESEyxkZ8aQkWYnOclKUoKVlJTvb+5JCRZSkm0kJ1mxWaPjBh5uzi4PDY1d1Dc4aTwgSairC/7c2NTFvppO9u5ro7nFFe5wI5ETWAK8BSwExD+ScEQiARAOpSVYfOdSgjf+pPCGE17xMSYKMmMoyIolvyCetJxYMtLsFOTFMSg/ntgYU7hDHNBcPV6qazspK2+luraTmrrg6z0VrZSVt1K5r/2gIY4BqA2YD7xKcJmhGKAR9hMJgPCdCcCVwGUMoDK7cQ4TQ/PiGJ4fT2FOHDlpdvIyYshJt5ORbEOv661JpNfgS7OLT0yU8Xr97KvpYO++dsor26isaqd0TwtFJY2UlDbT1j6gavCUA6/1fhWHNxQhEojL2cBmI/iUfzNwYphjUVVOmoOheXEMy4tneEE8w/LiGZYfT3qStU/H+xMtBKz6Y/+iEFWqazsp3tVEcWkzRcWN7NzVRElpM3v3tYc7NLWtAZ4jOEzQFeZYhDARCcDANJLgTX8ewcl9/YJWq6EwJ5ZRgxIZlh/P8PzgTX5obhx2OePvei2+dJtygQoRr6PTTUlpMzt3NbGzpJHi0ma27WigtKwFv79f9aK3AC8DzxLczEgYQEQCMHAYgQuAmwgW6Inq//cGvZbCnDjGD09m/Ihkxg9PYezQJHk3+qPwx5kIOIyKtytEn05nMDHYvrORDZtrWb+5lk1b6ujq9hz74Mi3EvgnwaWF/eI/SPhhUX0TEPokFrgV+CWQEuZYJNFpNYwYlMCkkalMHh38GlEQ//34vMp8GXbQiY+KcGRer5/tOxtYu6GGteurWbuhhp0ljfh8UdtTsJdgIvBvoDPMsQgqEle1/iuZ4E3/50RZN39SnJlpY9OZNjadSaNSGT88WZUn+z4R3f+CBB2dbjZsrmXN+mq+WbuPVWuraGqOuqX5zcCTwBNAY5hjEVQgEoD+JxW4g+CNPyruXOlJVqaPy2Da2DSmj8tg3NAktNrIeGsGrHr8iZZwhyH0A3sqWlm5uopVa6pYuaaKHcVRc091Av8BHiXYOyD0E5FxlRWUkA/8H3ANENGL09OTrJw+OZvTJ2Vx+qQsstPs4Q7pqAJ2I/74iP7nFKJUxd42lq+oYPmKcpavqKCuwRnukI7FDbwE3A/UhDkWQQEiAYh+scDvgNuI0Bu/3Wpg5sRMzui96Y8clBDukPos4DDij4vIf1ahHwkEYHtRA5/1JgNffF1x0B4MEcYJPA78jWChISFKiQQgeumB64EHCHb7R5SCrBjOmJzN7Bl5nDU1G5NRd+yDIpAYAhDCwev1s+bbahYtLWXBkl0UlTSFO6QjaQb+SnDCoCg3HIVEAhCdziWYfY8IdyDf0Wk1zDgxg/NPyee8GbkMyY0Ld0iKCBh0+NP6VixIENRSXNrMoqWlLFxSyso1eyNthUE5wQnH88Mch3CcRAIQXYYT7Ho7K9yBQHAt/syJmcw9fRAXnVZAcnz/fFL2pdtAH5olhz+k0+nG4/HT4/bR1e3B7w/Q3lvKtr2jB58vQLfLi0vB3fTsNiMGgxazSY/Foken0+BwBIdE4mLMaDS92w5HaQ9PNKprcPLRx7t4f8FOvvi6MpL2OviI4FBkZbgDEfpGJADRwUhwgt9vCfM4v06r4cwp2Vw+q5DzT8knfgBshhOIMeKP7ft/p6vHS3OLi5aWbppbXbS2uejodNPp9ARfd/Ts/7mj073/771eP67eG7jH66fT6QagpTU6eleNRh02qwGtVkNsb5LgcJjQ6TRYLQZiHMGtjmMcJmJjTMTFmfe/Dv65kViHiZje34mPE5tPHktzi4sFS3bx7kdFLPuiPBKSASfwR4LDAhE7iUEIEglA5JsEvEiwfG/YjChI4Jo5Q7nqvKFkJEfF6kLFNLX1UKMP0NjiorbOSV2Dk8amLurqg9vTNvfe6FtaumlucfWXqnAR4buEIaY3SYiLMZGcZCU91b5/m+XvtmJOSbKRNIDna9Q3dvHOB0W8+d521nxbHe5wthAsNb4l3IEIRycSgMilI/jEfx/BCX8hlxhr5opzCrl69jAmjozKIoI/qLvHy97aTqobnOyt66SqLvi6sib4vbrBSUNLN57wP1UJfWQ06khOtJKaYiMtxXZYspCZbicp0Upudiy2cBWXCoHSshb++9ZWXnlzK1XVHeEKowe4h+CwZURNWhCCRAIQmfKA14GTQn1ig17LrGk5XDtnOOfNyI3a2fsAbo+P8uoOyva1U1bdTtm+DvZUtVG2r53y6g6a2qKja11QR0K8mezMWLIzHeTlxJKdFUN2Rgy52bEU5MeRnBj9kz99vgCfLN/Di69tZtHSUjyesCSznwLXAmHvlhAOJhKAyHMOwf26Q7pYPjPFxs8uHcUNF40gNcoufJW1HZRUtLKzrJWismaKy1spqWxlX72zv+3cJoRQjMPEoPx4BuXHMTg//vvXBQlkRHDxqqOprXfy/CubeO7ljdTUhbzEfyNwFfBJqE8sHJ1IACKHlmB3/729r0Ni+rh0fnH5CVx0WgGGCJjp/kNqGrvYXNLI5uJGtpY2sbOsheKKVjojt2CK0E/FxZoZNiSREUOTGDYkkZFDkxhamEhudiyaCL+qejx+3l9YzBPPfcvqdftCeWof8GuCQwJCBIjwt+qAYSK4J/floTiZVqvh3Om5/O6G8UwZnRaKUx4Xnz9A0Z4WNhY3sLm4kc0lTWwuaaShJeo2UxEGGLvNyOiRyYwbncqYUamMOyGVUcOTI3aZ5KatdTz+zDrefG97KGsLvA7cgCgeFHYiAQi/ZILrZ6eqfSKjQceV5w7hrmvHMSwvXu3T9Vl9czdrttaxZlsd32ypZd32Ojqc4qle6B8MBi3DhyRx4pg0pk7MZOqkTIYPSYqonoIdxY08+sQa3nxve6jmCXwNnA+0hOJkwpFF0FtwQMoClgFD1TyJXqfl6jlDuffGieRlONQ8VZ/sqWrn82+r+HzdPr7ZUsueqvZwhyQIIZUQb2bqxCymTspk2uQsJoxLx2IOy2Kfg+ypaOXPf1vJ6+9uC0WPwCaCRc0a1D6RcGQiAQifXGA5UKDWCbRaDVfMKuQPP51IYU74SvNWNzhZvraK5ev28fm6KsrDtyxJECKSwaDd30MwbXIWJ5+UQ2JC+Goa7NzVxAN//Zr/fbRT7Ym0O4AzELsLhoVIAMIji2AXWK5aJzj5xAwe/810xg1LVusUR+X3B1i3vZ75X5Yx/8sytpU2hzwGQYhmOp2GE8ekcdbMfM6cmc+UCZnowzBJ99uNNfzq95+xak2VmqfZBZyKWCYYciIBCL1YYAVwghqNZ6fZ+fOtU5h33tCQjjG63D6Wrd7L/C/LWLiinJrGrtCdXBD6udgYE+ecMYgLzh3C2afnE+MIbQnuhZ+Ucsdvl1FW0arWKbYCMxDbC4eUSABCywx8hgoFfgx6LXfOG8t9P52IxRSascRAAFZsqObVhTt5b9lu2jrdITmvIAxkJqOOmSfnctlFI7jwvCE47MaQnLer28P9D3/NP/+9Tq09B5YAcwDldrMSfpBIAELrReA6pRudPDqV5+6dyQmFiUo3fUTF5a38d1Exry0qpqJGjOcLQrhYzHpmzxrMlZeOYtbpBSEZJti0tY6bbl/Mhs21ajT/HPBTNRoWDicSgNC5BXhKyQYNei1/vHkSd193Ijqtuv8r/f4Ai1dW8o/XNvHZWlXHAwXAoNNiMRmItRixmgzodcELu8NiRNs7tmMzG9Ad+Fob/B3bAb9vMeox6A6/KfR4fPR4fX2Kxevz4+wJbj/c6XITADq6g7097d09BALQ6fLg9/vpcnvx+Py43F7cfWxfUEZmuoOfzBvDT+aNITNd3dU+Xq+fBx9bxYOPrVKjN+AqgrUCBJWJBCA0RgDrCQ4BKCIvw8FrfzmTaWPTlWryiLpcXl5duJPHX99Mcblq43/9itmoJ95mJslhIcFuJt5mxmoyYDMbcJiNWE16rCYDVpOBmN4bvMUY/LNYixGLyXDEm3Y0cnm8uD0+2rrddLrcdLo8dPa+7uj9uaPbTcf+v//+zzpdHtq7e/YnG0Lf6HQaLpo9lLt/OYVxJ6hb6Gvdhhrm/XQ+pWWKLufvBMYDJUo2KhxOJADqMwJrgLFKNXjx6QW8fP8ZOGzq7Wbmcvt44s0tPPLShgG/aY7ZoCfRYSHJYSHebiLOZibBbibJYSXBbibOZibebiLZYSXebsZiDP967v7E4/PT0umiudNFU0c3zZ3dNHe6aHG6aGz//nVzp4vG9i6cPaKI1HfOnJnP7+48ielTslU7R3tHD9f8bCELluxSstl1BOdKifkAKhIJgPruA+5XoiGtVsP9N0/idzdMUG2Gv98f4I3FJfz+qTUDYnzfZNCRmeAgI95OapyV9Dg7KXFWUmNtZMTbSYm1EmsN7YxrQZ4ej48Wp4u6Nid1rU5qWpxUt3RS2+qktvd1Y0cXgQG0T9T55xTy4H2nMkyleUJ+f4A//e1r/vzoSiX/XW8DnlCsNeEwIgFQVzawE5C9vZ7ZqOONh87iotNUqxvEyk01/OKRr9i4s38V5kqOsZKXEktWooPsRAdZiQ6yEoLfk2OsEVWSVQgNj89PXauT2tbe5KDlu9cdlDe0U9XUgdcXlq1zVaPXa/nFTRO4/54ZWC3q9B6+++FOrrllAW63IvM/WglWSa1XojHhcOLSp67XgCvlNuKwGfjoH+cxc2KmAiEdzuP184dn1vLXlzfgi9Ltc81GPQUpceSnxO7/yuv9spnUGyoR+ief309VUzAZKKtvo7y+jYqGNsob2qlt7Yzq3oNBeXH8+/FzOHW6OnXIPv28jEuueR+nMrt0Pg/cpERDwuFEAqCeYcB2ZG7t67AZWPbsBUwalapMVIfYWd7CVb/9lPVF0fHUr9NqyUuOoTA9niEZCRSmxzM0I4GsRMf+2fGCoCaXx0t5fXtvQtBGSU0LO6uaKG9oi5oEWqvVcN9d0/ndndNU6QH7Zu0+Zl3ylhJJgAcYBOyVH5VwKHHFVM8LwE/kNGA06Fjwz/M4a6o6E3j+t2w319y7jC5XZM6z0Wm1FKbHMSo7mVE5SYzOSaYwPR6jPjK3VhUGNpfbS3F1M0X7mthR1URRVRO7alpweSLz8wUw++zBvPHCBaoMCSxfUc6cy9+lR/5wwOPAHQqEJBxCJADqSCaYsUqePabRwNuPnM2lZw5WLqoDPP76Zu58bKXaG30cl4JEK6MzYhiVEcPoYYUMy07GbBAz6oXo5fP7Katvo6gqmBRsq2xga2VjRCUFM6ZmM//NS1WpKPj6u9u55mcL5DbjBDIRZYIVJxIAdfwcmbNXfzVvLH//1TSFwjnY469v5o5Hv1al7b7SAIOTbUzKjWNiThwTc+NIsgUvQAF7ElhiwxqfIKjF6/Ozo6qJjWV1bCyr49s9tTS2d4c1pulTsln6/uUYjcr3rt1291Ke/s8Guc1cD7ykQDjCAUQCoI5VwFSpB08cmcLKl+diUKGs53uf7ebS3ywJyySmrDgzpwxOZHJePBNz4kiwHt7tGNAZISEL8dYUBpLS2ha+Ka7mm5Jq1u2uCUvxoxvmjeXZf8xSvN0et49pZ7/Kpq11cpr5FDhLoZCEXuIqq7xUgntbS/q31Wk1rHv9UlW28d1V2cq4y9/B2R2aQik6jYZx2bHMLEzklMGJFCbbjnlMIC4DDOHbB10Qws3n97N+Tx1fbK9k+bZKyutD1/P95gsXcumFwxRvd92GGqbNelXOkKMPSAHE3uIKEgmA8n4EvC314J9dOoqnf3uKguEEBQJw6g0fsGKDultu6zQaTiqIZ86oVE4dnEjs8UwuMtkJxKiz2kEQolV5fRtLNpWxcP1uSmsVLbl7mKwMB9u+uRG7Tfn5ADfdvpgXX9ssp4kLgPkKhSMgEgA1PAncKuVAvU7L7oVXkZOm/EYeH36+h4t+tVjxdr9zQkYMc0ancu6IlP1j+ccrkJgDWrFmXxCOpri6mfnflvLBmhKaO9Up0f3I/TO589bJire7u7yV4ZP+LacX4O/ArxUMacATCYDyvgROlnLgxacX8N6j5ygcTtDUq//HanljcIexGHTMGZXKVRMzGZpil9VWwBIDduWHPQShP3J7fSzZVMYbX+1gU7myhfIG5cVRtPanaFXYYfTCK//Hwk9KpR7+OXCaguEMeGKNlfKGSD3wsrMKlYxjv9K9bYre/BNtRq6fks2lY9OPr4v/aDQasMTJb0cQBgijXsf5EwZz/oTBrC2t4V8fr+fb3bWKtL27vJVNW+s4cYzyOwleeuFwOQnAICVjEUQCoDQrIOlTo9VqVCv1u2yNMkW0Ysx6rp+SwzWTsrAquVzI5ACd6PoXBCkmDU7ntdtm8/XOKh54dxWVje2y2/x6dZUqCcBpJ+ei0SB1FVIWwdoqPYoGNYD1j03HI0eM1AMzU2wkx6sz+33jzkbZbcwansKSn03mZ9Nzlb35azQErOLpXxDkmj4si/l3X8x1M0fLLu+7Q4FrxpGkp9pJ7cNqoKPQAuJioSCRAChL8uy91ATZGwYeVX2z9CIjBp2WR84fzj/njiRRhZnBGO3i6V8QFGI26rn7wsk8ctWpGHTSL+9NLeoVJkqRngAAyDpYOJhIAJQl+dHYalZvNMbjlV6LOy/BwoxBCQpGc7CAqPgnCIqbNjST3GTpny2XivuD2GyyEn4xbK0gkQAoS/LgW1unepW/EmLMko/d1eDkkhfXs6pMhfXHehMYJG+XIAjCEZTWtnDF4wtk1QxITFCvGFdbm6whfLEfgIJEAqAsyQlA6d421TbmyUqVt0Svus3F9a9v4p4FRdS2Kzf/JmCRPGVCEIRDeH1+nlqykYv/9qHsiYDZmcrXIgHwev3slvcw0apULILoTlGaE+giuBrg+A7s9rC+qIGJI1MUD+okBWbzBoD3N9eyaHs9l5+YyU3TciQX/AFAow3O/hcEQRZ/IMDiDXt4cskGyhQqGzx1UpYi7Rxq7fpqOdsDdyBWAChKJADKCgA7gAlSDn7301JVEoDp49KxmPR098gf1+vx+nll7V7eXL+Pc0emMG9iFqPSJdzITQ5kT1UWhAHM7fXx8cY9vLBsM6W1yj0YW8x6pk1WJwF458MiOYdvUyoOIUgkAMrbgsQE4J2lpTx821TFK3DFOUz86KzBvLJgp2Jtun1+PtxSy4dbahmXFculY9M5c1gyMX2czBgwi8m8giBFVVMH76zayf9WF6tSDviyi0cQG6P83ByfL8D7C4rlNLFVqViEIJEAKE/ybhcVNR28vriEeecNVTIeAO64agyvLSrGp8I8g41VbWysauOPi0s4tTCROaNSOWVwIqajbWes0YFB+sREQRhomjq6WbKpjEUbdrOxrE617bx1Og233zxRlbZffmML1bWdcpqQtZOQcDjRB6u8QqBE6sFZqXaKP7xSlWWBtz70JU+/E5peNIdJz/RBCcwsTOTkQYnEWw9Y+mOOIeAQdf8F4YdUNrbz+bZKvtheydrSGlWS90PdesN4/vnwmYq32+3yMnzSv6mq7pDTzBBgl0IhCYgEQC07AcmP8Q/cMpl7b5Q0ivCDWjt6mPDjd9ldFdqVNDqNhjFZMcwsTOSUwYkUDipEY1av8JEgRKNut5f1e2r5pqSaL7dXKjqu3xeD8+NZvewa4mKV75279y9f8tA/vpHTxHZglELhCL1EAqCOh4G7pR6s12lZ/twFzDgxQ8GQgraVNjP1mv/R2eVRvO2+ireZmTA4jUmD0plUmE5hejxaMSFQGGBcbi9bKhtYW1rD6pJqNpfX4/H5wxKLw25k5ZKrGTEsSfG2v/i6grPnvoXPJ6sH48/AvQqFJPQSV111nIDM8arMFBsb37pMlf0Blq3ZywW3f0yXitW+jkes1cSEQWlMHJzO6JwkRmQlYTGK6SlC/1Ld3MmWygY27KljY1kdO6qa8PnDc8M/kM1q4MPXL2HmjFzF266p62TCqS9R1+CU00wAGE2wF0BQkEgA1LMUkDWYdtKYNJY+cz42JbbcPcSKDdXMvm0hHc7w9QQcjU6rYVBaPKNzkhiVnczonGSGZibIqm0uCKHi9fnZXddK0b4mdlY1UbSviaJ9zbR3Rd4S9hiHiflvXsL0KdmKt93e0cNZF7/Ftxtr5Da1GDhXgZCEQ4gEQD1nAZ/IbeS0SVksemI2ZiV34OtVVNbCxb9azM5yFcr8Ksyo1zE0I4HhmYkUpsdTmB7PkIwEEuxiNYEQPu3dbkqqmymubqao92a/q6YFt4z9N0Jl+JBE3n3lYoYVJiredle3h9mXvcuKVZVKNHc6sFyJhoSDiQRAPRpgIzBGbkOzT87jnb+ejcWkfLd4u9PNzX/+gjeXROfk2kSHhSHp8RSmJzA4LY68lFjykmNJiRWTDAVl9Hh8VDS0UdHQTllDGxUNbZTXt1Pe0EZTh3q75qnpirkjePrvs3DYld/hs9Pp5uJ577N8RbkSzW0AxivRkHA4kQCo6wzgUyUamjw6lfmPn0eKSpt0fPRFGbc8+CXV8sbqIobNZAgmAymx5KfEkp8cS1aig8wEB0kx6m10IkSnTpeH2tZO9jV3HnSDL29oo7bFiV+thfchlpFm56lHz2bOrEJV2q+td3L+Fe+yYXOtUk2Kp38ViQRAfW8ClyvRUGFOHB8/OZvB2epsodva0cNfXljPE29tkVOvO+KZDXqyEu1kJcaQmWDvTQzspMTaSI+3keSwolO4GqMQPi6Pl5oWJ7WtTupanexr7qSu1Ultm5Pq5k5qWzvpdEXeXBglmU16br1hPPf8aqoqy/wAikqamHP5O5RXKrbM+L/A1Uo1JhxOXOXUlwYUAXFKNBZjM/KfP57GJWcMUqK5Iyqv7uDep9fw5uKSkBQfiTQ6rYYkh5X0eBupcTZSY20kOswkOiwk2M3E24JfiQ4LDovyXajCsbm9Ppo7XTR3umhs76LF2UNzZzfNnS6aOoLf69uCN301yuVGC51OwxVzR3L/PTPIVenBAeDDRSXccNvHtLYp9m/dBgwHZM8gFI5OJAChcQvwlFKNaTTwq6vG8tBtUzEcrdyuAnZXtfG3Vzby8vyd/bpHQA6DTku8/fuEIMFuJt5uJsFmJsFuITHGQqzVhM2kx2ExYTXqsZkMmMUyRwDau3rodHnodLm//97jobPbTXu3m06Xe/8NvbnTRYvTRUNbF86e/v3ELpfJqOOaK0Zz5y+mMChPkWePI+px+/j17z/jmRc3KN30jcALSjcqHEwkAKHzFnCZkg1OHp3KS/efzvD8eCWbPUxNYxfPvbedFz7YQVWdrFreQi+tRoPdYsRuNmA16rGaDNjNRuxmI1aTHqvRgM1swGExYjMZ9i+BNBv1GPXBFSFmg27/a5NBh9kQTCqMet3+BMOg02I9JNnocLk5no4dj9dHt9uLzx+g0+UGgrPfATq63QQCAZw9Hrw+Pz0eHz1eH+79x/hxujx09N7gnQfe6Pt5t3s4ZGU4+Mm8sdx4zVjSUtTdcGvr9nquvXURm7fVKd206PoPEZEAhI4NWI3C5SzNRh1/vHkSv75mnOrj1j5/gAVflvH8+ztY+s1evGGqWiYIwvcMBi1nzSzghqvHcO6Zg9Hp1L0OeL1+Hnt6Lfc//JUaPYNbgKlAl9INC4cTCUBoFQJrUWg+wIG8GpC2AAAgAElEQVQmjUrlmd+ewonDQ7PJTnObi/8t282rC4tZtblGtd3JBEE4shPHpHHVj0Zx2cXDSU0Ozfbaa9dX87M7P1HjqR+gGZgI7FGjceFwIgEIvVnAR4Dis8d0Wg03zR3Jn2+dTIJKM32PpLy6g4++2MNHX5Tx1YYa0TMgCCrQ67XMmJrN+ecUcv45hapO6jtUfWMXv33gC155c4tayX4PMBtYpkrrwhGJBCA8LgTeAZSv8Qskxpp54JbJ3HjxCFUnCR5Jc5uLj7+uYMmqSj5dvZf65ugslCIIkSA12cYZp+Zx9ukFzDp9EAnxoa182eP28fQL6/nL31cpOcP/UG5gLrBQrRMIRyYSgPC5mODEQFWSAIDcdAcP3DKZeecNJRyb7fn9ATYVN7J09V6Wr61i9dbaiNx7QBAihcNuZPKEDE47OY+zZuYzZlRqWD67gQC8N38nv33gC/ZUqLotsQf4EfChmicRjkwkAOF1GfA6oHyh/wNMGpXKvTdO4LwZeWG5mHzH5w+ws6yFlZtq+HpjDSs317Cnqj18AQlCmKWn2jlxTBrTpmQxbVIWE09Mx6jCvh995fcHmL94F3/620q1xvkP5CVYJO09tU8kHJlIAMJvLvAqoHrx+jFDkvi/60/k0jMHR0ylu+oGJ+t3NLByczApWLe9HrdH1BwQ+h+dTsPQwYlMm5zFSZOzmDYli4Jc9dboHw+v18/bHxTxyOPfsKO4MRSndAJXEpwPJYRJZNwFhDHAfCAnFCfLz4zhlz8+gZ9eMkqVXQbl6OzysLW0ic0ljWwqDn5t3dVEl8sb7tAEoc9sVgMjhyczdlQKY0anMmZkCqNGJGO3RVblSLfbx9sfFPHQY6so2d0cqtPuAy4A1ofqhMKRiQQgcmQQHAebGKoTZqfZ+fXV47j+guHYrapNRZDN5w9QWtnG5pJGNu5sYHNJE1tLm0RRIiEiZGfGMGp4MmNGpTBmVConjEphcH686uvx5Wjv6OGF/27m8afXUl0b0s/RGoKToBXbLUiQLnLfoQOTGXgeuCqUJ3XYDFwxawi3XjaaE1TYG1wtPW4fpXvb2LGnmT1V7ezZ18723c1s3dVEu9Md7vCEfsRk1DEoP54Rw5IoyI0jPy+OEUOSOGFUiipb6qpl564mXn1zK8+/uomW1pDvkfAucC2iyE/EEAlA5MkDdgOhXb/X69QJmfzs0lFcdFpByJcQKmlfvZPi8hZKKlvZU9VORU0HFTUdVNZ0UNMorj/C4dJT7eRkx5CTFUNuViz5eXEMGZTAkMEJZKY7wh2eZG63j/cXFvPsixv5evXecIXhBwYDZeEKQDicSAAiz9PAz8IdRHqSlRsuGsG15w+nICsm3OEoyuX2UVHdQWVtx/7EoKK6g/KaDqrrnVQ3OOnuEXMO+hOrxUB6qo30NAd5ObHkZseQkxVLbnbs/pu+2dS/NmgqLWvhlTe28OJrW6hrcIY7HIBnCG6MJkQIkQBEljSCZTAt4Q7kQOOHJzNv9lCuPHcoSXGhLUQSLu1ON9UNTuqbu6mq66S+uZvqBie1TV3UdPRQU++kvt5JU0s3/gG4ZXIk0Ok0JMRZSEmxkZ5qIy3FTlqKjfQ0O6kpNjLTHSQnWclMd0RVN70crW0uFiwp5bV3trF8RXmklejuAQYRnAQoRACRAESWx4A7wh3E0ZiNOmafnMe82UOZdVIORkNkrSAIhYDFgD/p4CSotc1FU4uL5uZumlu6aW510dzSTVNzNy29r5tbXDS3dtPp9NDV5aG1zUVHpxuvd2CXTdbrtTjsRuJizdhsBmxWAwlxFhLizSTEW3q/el/HmUlMsBAfbyEx3kxcCMtdR7Iet49PPtvDa+9sY9EnpZG+dfdjwJ3hDkIIEglA5EgEygF7mOPoE6tZz2mTsrj0zMFcfFpBRK8iUJI/2ULArFxXsavHS2enh/bOHjo6eujs9NDpdNPR6aa13UUgAG3tPfj9Abq6PLjdPnrcPrq6PPj8Ado7eoBgEvLd057b7cPZdeSKi50/kHTo9VrsR3lStlkN+wvUaDTsv/nGOEzotBqsVgMmow6jUYfVakCr1RAbYwr+bowZh92I3WbEbjfgcJiIsZuw2w39rts9VLpdXj77spz/fbSTBUt20dbeE+6Q+soJ5AMN4Q5EEAlAJHkQuCfcQUhhsxg4d3ouF59ewDnTcontr92tOg2+dLv41Ahh0drmYvGyPXywsJgly/bQ1R21ZbUfBH4X7iAEcSmLFFZgL5AQ7kDk0mk1jB2axOyT85hzSj7jQ7Q9cSgEbAb8CaLbWQidPRWtLFxSyqKlpXz1zV7ckd2931etQDYgCnmEmUgAIsMtwFPhDkIN+ZkxnDs9l3Om5XLK+IyoHirwx5sJ2KM3fiHytXf08OXKSj75bA+Ll+2hYm9buENSyy0EVwUIYSQSgPDTADuAYVIbmDsmnZwECy+v2UvLUcZ+I4Fep2Xy6FROn5TF6ZOzmDI6NaomEvrTrASiKF4h8vW4faxet4/lK8pZ9mU56zfVRvTE0AS7mWtnjqaioY33VpfIaaoIGAlE1jqFAUYkAOE3C1gs9WC9VsPSW6aQGWemy+3j9W/38eLqSpojOBH4js1iYMa4dE4en8GMcRlMGJkScXsTHMiXZSes2ykKUa/b5WXdhmpWrNrL16v3smrNvqgYy090WPjJaSdwxfThWIx69jV3cPaf38Xrk5WszAI+UShEQQJxNQu/xQQ/CJJcMDqNv14w/KA/6/Z8lwjspSmKSuKajDomjkxhxrgMpo9L56QxacQ5TOEOK0inwZcRFQs0hAjS3OLim3VVrFxdxVer97J+U21UjeMnxfTe+KcNx2w8eMXG3a99wUfrSuU0/zFwnpwGBHlEAhBewwh2/0v6/6ABFvx0EoXJtiP+vcvr56Mttby6torSxoioBHZcNBoYmhvPxJEpTBqVyqRRKYwdmhSeYQO9Fl/6kf+dBQGCSzo3b61n7YZq1m2oYd2GanbtaQl3WJIMyUjg6lNGMmf8YExH+byV1rYw5+H35BQb8gPDAVljCYJ0IgEIL1mFf84YmsRTl44+5u8FgJV7mnl5zV6+3t0c1YNuJqOOsUOTGD88mbFDkxk3LIlRgxPVHzrQafFliARACOrq9rBtRwMbt9axaUsdG7bUsmV7PR5P5I7fH4tWo+HkEdlcfcpIThqa2adjbn3hUz7bWiHntH8Hfi2nAUE6kQCEjxGoAiSvk3vr2hMZlxV7XMfsaerilbVVLNhaizOKuiJ/iF6nZXhBPGOHJDF2aBKjCxMZmhdHTpqCG7hoNfgyxRDAQOP3B6jY20ZJaTNbixrYvLWOzdvqKS5twueL5lT6e3azgQsmFjLv5JHkpRzf9WT9nlqu/OdCOaevB7KAyJ8I0Q+JBCB8LiG4PaYkI9LsfHDDRMkn7/H6+XxXI29vqOabspao7hU4GpNRx6CsWEYOSqAgK4YRBQmMHJTAiIJ4LMdbgU5DMAEQkwD7JY/Hz97qdnbsbGRHcSNl5a1sL25ky7Z6OqNoHs3xGJmdxGUnDWP2+EFYTdKXt8599EO2722UE8rFwAdyGhCkEVez8JE1+e+hOcO5eEyaIoHsanDy7sYaPtpaS2sUzEiWS6/TUpAVw/D8eIblxzMsL57h+fEMyY0jPubokw79aTYChujdIlmAhqYudu9poaikieJdTezc1cTOkibKKlv7zRP9D0mwm7lgYiGXTB3KoNQ4Rdp8b3UJv3tzhZwmFgGzFQlGOC4iAQiPbIL7YksauI63GvjytpMw6ZW9Gbl9fj7f1cTCbXV8WdpETwSvR1aLw2YgJ81BXoaDnDQH2Wl2ctIc5KY7yBqeSHp+PHqF/90FZXg8fqqq29m7r52Kve1U7G1j777gz3ur2imvbKPbNfC2eTYb9JwyMpvZ4wdx6sgcDDpl378uj5eZf3iLFqdLahM+IBexS2DIiQQgPO4FHpB68E+n5fKrmQUKhnO4jh4vn+5sZNH2Or4pa8EXYfuKhoteryUjzU52Vgy5WbHkZMWQnRVDZrqDpAQLyck2UpKsA2b72VBpbnFR3+ikqambhqYuqms72VvVTmVVG5X72qmobKO23im2Zu6l02qYOiST2eMHccYJedjN6law/PuCdTy/bLOcJn5HcI8AIYREAhAexcAQKQdqNRo++/kUMkK4FWqj082SHfUsLW7k24pWkQz0gdmkJynRQmKClbRUG0kJFpISrSQmWEhLsZGUaA3+WZKVpAQrMQ7jgOlZ6HZ5cTo9NLV009jYRWNzF3UNXdQ3OGlq7qaxqffnA274kVwdL1LotFomDk7jzBPymDU2n0SHJWTn3tfcwZkPvINf+rWhCBihYEhCH4gEIPTGAhulHjytIIEXfzxGwXCOT2u3h+UlTSwrbmDlnmZc4sKsGKNRh81qID7WjNVmwGox4LAbiY0xYbMGf46NMWG3G4M/9/4ugMGgxW77vtfhu+14DxQTY0Kr/f4jb7cZMei1tLR933Xr9wdoP2BrWa/XT0fn95Pg3B4fTmdwnkggAK3tLjo73Ti7PHR1eWhpdeHs8uDsCm5r3Nrmoqv3545O9/6tjQVlmA16pg/L5IwT8jh1ZA5xtvAVzrr+6cWsKpbViz8G2KJQOEIfiM24Q+8yOQfPHZOuVBySxFkMXDwmjYvHpNHt8bFidzNf7GpkRWkzjf10tnSouN0+3G4fLa2Sx1KFASApxsKM4dmcNiqHGcOyDqvQFy4XTx4iNwG4DJEAhJToAQi9XcBgKQc6THq+vmMa5gjtKt7V4OSLXU2sKmtmbUUrXvGkJwiy6bQahmUmctLQTE4dmc24/FS0EbgctcfjY8Z9b9De1XPsXz6yPQSvjeLCESKRkToOHBOQePMHmDM6NWJv/gCFyTYKk23ceFIObd0eVpa18E1ZC6vLW6hs6Q53eIIQNXKSYphSmMHUoRlMG5pJjDVC9sT4ASaDjvNOLODNr4ukNlEAjAe+VS4q4YeIBCC0ZHX/X3yCMuv+QyHWYuDcESmcOyIFgOo2F9+UB5OB1eWt1HdIfkoQhH4nNdbGlCHpTCnMYMqQDNLjo7Pq5EWThshJAAB+hEgAQiby+pH6t1JgkJQDc+ItfHrrFIXDCZ/y5i7W721j/d52NlQ7KatvC3dIghAy+SmxnFiQyoSCNE4sSCU3+fhK8EayMx94m71NHVIP342MXlLh+IgegNAZjsSbP8A5vU/S/UVegpW8BCtzx6QTiEmhya3nm5Jq/vLeN3IKighCxMpKdHDXBZMYX5AW0iV6oTZrXIGcmgCDCO6SulO5iISjidwB5f5njpyD+1sCcJDOVtbtruXxRd+Km7/Qb1U1dfDPResp2tcU7lBUdc64fLlNiLLAIRKGjdUHrAcJlrs8bnkJVu5QufJfuGytbuf297bw0pdFtHeLZYRC/9bidDH/21K27W1kTF4KsVEwue94JcdYWbB+N23SVwMYgVcUDEk4CpEAhEY88C8k9rhcMT6DKXnxykYUZk1ON39YXMyfP9lFTbuYECgMLOUNbbyzaidur59xeanoFa7PH26N7d2s31Mr9fBM4AlAdAeqrH+96yLXOciYb3HG0GQFQwm/JUX1nPfvtczfWicW/AoDVo/HxzOfbGTOw++xuqQ63OEo6vTRkjo7v2MAzlIoFOEHiEmAoSH5zZxkNzIiLTqXBB2qormb+z4uZnV5S7hDISUxgfPPOAWbxULFvhoqq2up2FdNU6tYjdCfJcbFkpuZQU5GGrmZ6bR3Oln0+VfUNzWHLabKxnaue/pjLjtpOHfOmYjDEv0bSY3KSSLRYaGpQ3L9j1nAOwqGJByBSABCY6bUA08ZnBiRVb+Ohz8Q4OU1VTz+xZ6wbjFcmJ3FhafN4ILzzmLquBPQag/vAOvs6qJiXw3lVdW9SUENldU1wT/bV01NfSMBsRlSRNJoNKSnJJGXmUFuZjo5GenkZh78ZbdaDzvO7/ezbst25n/2JR8u/ZwdpXtCHnsgAG+tLOLzbZU8cPl0ThmRHfIYlKTVaDh5RDYfrCmR2sSpCoYjHEV031miQwHBta2SPHHJKM4aFr1DANVtLv5vwU7WhOmpvyAznWtmn80lp5/CiPw8iHGAXvrUF7fHQ2V1LZXVwV6D+qZm6hqbaWhuprG5lbrGZuqbmmlobqHHLSY1KsFkNJKcEE9yQjxpyYkkJcSRnJBAalICqUmJZKenkpuZQXZ6KkaD/G1vNxeV8Mb8xby1cAmV1ZLHsSXTaODH00fwmwsmYTZE7zPakk1l3P7SZ3KayAMqlIlGOBKRAKjveuA/Ug406LSsuXM6NmN0ztVcsK2OB5aU0O7yhvS8FpOJuaedzPXnn8Op48eg+a4HxWgEuy1kcXQ4ndTUN9LY0kpDcwsNTS3UNjbS2Bz8ubGllbaOTjqdXTi7u2nr6KSj04nX5wtZjKGk02mJsduJsduwW63YrBZiHfb9N/ekhDhSExNJSUoI/hwfR3pKEg5b6P6fHSgQCPDl2vU89+Z7vP/J8pAndIPT4nj06tMYlpkQ0vMqpaPbzdTfvYbXJ7nX7zrgZeUiEg4lEgD1vQrMk3Lg5Lx4Xr1qrMLhqM/p9nHfomIWbq8L6XnHDS3kpotmc8XZpxF7pBt9XCwcods/0rh63L0JQQcdncHkoNPZFUwQnE6c3S6cXd20tgerrXW7XLh6vr85dblcB92snF3duD2e/T93dnXh8RyclBkM+oO6xw16PXbbIT8f+PcH/H6sw47NasFuteCw2fb/bLNYiHHYiHU4sFksmE3RO7bd0NzCK+8t4Nk33mV3ZVXIzmvU67hj9gSuPXU00TgSOO9fC1m3W3IvyivAtcpFIxwqCt9SUacCyJFy4C9PyeeWGXnKRqOysqYufvG/bexqcIbsnNPGjOLua65g9vQp3z/tH8pkAtvh47+CcDz8fj+LPv+Kh599iVUbJFe7O26njszhr/NOJSbKJgg+sXg9Ty3ZKPXwSiTWThH6RiQA6pI1/v/61eOYkBOnYDjqWri9jnsXFdPlVr8L26DXc9mZM/n1vB8xpvAYFZY1QGx0PP0L0eOrdRt45N8vs+jzr0JyvryUWJ78yRkMTouemiBrS2u4+olFcprIB8qViUY4lEgA1HU58KaUAy0GHWt/PR1jFBQI8foDPPxpKf9dp37XqEGv54YLz+Wea39MdmofyyObTXCE2d+CoIQ1m7Zy3+PPsPSrb1Q/l9Vk4C9XzOCccdFRGbTH42PSPa/S45H8UHAZYjmgaqJzdln0uB6YKuXAiblxzB2TrnA4ymvr9nDzO1v5eEe9qufRaDRcesYpvPfX+7n63LOOPMZ/5CPBYSMqB1CFqJCVlsq8C8/jjGmT2VVeqerKAY/PzyebynB5vEwZknH0Ia8Ioddp+aa4mn3NnVKbqASWKhiScACRAKjr90gc/587Np2JEd79X9HczdWvbWJ7jeStP/tk5oSxvP3QH7j9irkkxsYc38EWCyiwNEwQjiUnI53rL72AUUMGs35rES3t7aqda0NZHbtqWpk5Kifiywjva+lkbWmN1MO9iJUAqonsd0500wMnSj14bGZk7w++tqKVH720nvLmLtXOMTg7k0WPP8TyZx5j4oihx9+ARhPs/heEELrknDPYsfQ9/vp/t6u6hHHp5jKueeJjOdX2QmJsnqydTE9EPKiqRiQA6hkJSBp41gCj0h3KRqOgj7bWcv0bm2nt9hz7lyUwGQ3ce8M8tr71H86dNll6QxaL6PoXwsJkNPKbG69hx9L3uOis01Q7z+aKei77x3x217Wqdg65Rucky/kY2oERykUjHEgkAOqZKPXAvEQrMebIrAD26toq7v6oCI/04h4/6NTxY9n0+vM88NPrMBtlLHnSaiGK150L/UNWWirvP/N35j/3OLmZ6szpqWrq4IrHF7C5Qt15OFLFWk1kJx7n0N3BJigVi3AwkQCoZ7TUA0/IkPVhUc0TK8r4y9Jdquzglxgbwyt//D+WP/N3huVJmjZxMItZPP0LEWPO6aewdfG73HT5XFUm7rV39XDdU4tZs0vyWLuqTsiVVc78BKXiEA4mEgD1jJR64JjMyEoAAsDDn5by5IpyVdo/beI4Nr3xPFefd5YyF0etBoxi7F+ILA6bjX//5fcseekpstJSFW+/q8fDjc8u4dMt5Yq3LZfMBEDytVT4YSIBUI/kcatI2v7XHwjw2wVFvLRmr+Jtm4wG/vbLm/n0yUfJSlFwwyOLRVS4ECLWWTOmsuXjd7j03DMVb9vt9XHHy8tZtEFy/TFVDM9KknO4SABUIhIAdSQAkgb8NMDg5PBsfnIofyDAvYuKeX+z8uuah+fnsvqlp/j1VT9Cq1Xwbi2e/oUoEB8bwztP/JVn/vQ7LAqvVPH6/Nz13y9YuD5ykoCh6bKqF2YA0VP+MIqIBEAdkp/+02JMOEzhnwAYAO5fXML/Nik/pnjdnFms/++zjB0yWPG2MZvF078QNW7+8SWsfu+/DBuUp2i7Pn+Au1/7kk83lyvarlQxVhOpsbIebEQvgApEAqAOyW/WwuTwd/8HgD9/sou3NlQr2q5ep+Phn9/Ii/fdhcWkwlO6Vhvc9EcQosgJwwpZ9+HrzJ11uqLt+vx+7nhlOZ9vq1S0XakK5fUCiKWAKhAJgDqGSD2wMAK6//+2bDevKVzXPyUhjmVPP8rd11yhaLsHMZvEzH8hKtmtVt598m/cf/vP0Cq4aZXX5+f2lz9jVfE+xdqUSmYCIKESmHAsIgFQR57UA8M9/v/ymr38Z7WyTwzjhw9h3SvPcsqJYxRt9yAajXj6F6KaRqPhvl/cxAfPPIZdwc2rejw+bnnhUzaXh7dOgMwEIE+hMIQDiARAHXlSD8yJNysYxvH5eEc9jyxTduLQ3NNO5qvn/0lOmqxyoMcmnv6FfuL8M05hxdv/ISNVuZUxLreXm59bSkVDm2JtHq/sJFnLm/MUCkM4gEgA1CF5r87seIuScfTZ2opW7v6oCH9AuTI/186exVsP3qvOeP9BNGAKX+IkCEobN2IY6z54nbFS9sA4ihani588syRsewdkJcoqb56rVBzC90QCoLxYQNI2fia9lmR76MvX7mpwcss7W3ErWN73vhuu5qU/3IVeF4J9PEzG4PI/QehHMlKT+eKNFzh1snKVcKuaOrj5uaV0u72KtdlXqbFWjHrJ14NEILIqpPUDIgFQXr7UAzNjzWhD3I3d0uXh5re30NGjzAVBq9Xw5F23cf9Pr1WkvWPSEFz6Jwj9UKzDzscvPsl5M2co1ubWygbueHm5or19faHVaMhIkLXKKU+hUIReIgFQnuRC9qHu/vf6A/zy/e1UtboUaU+v0/HGn3/PrZdeqEh7fWI0QoTvhy4IcljMJj549jF+dN5ZirX5xfZKHl/0rWLt9VVWgqxhAAU2CREOJK6cypNc5Ds9JrSz2P+ydBdrylsUaUun1fLan37LZWfOVKS9PhMz/4UBwKDX88Y/HuLauecr1ubzyzazeOMexdrri/R4WaucVJ5JPPCIBEB5kt+kyfbQ3cze21zDG98qszZYq9Xw8h/vDv3NX68PfgnCAKDTafnPw39g3kXnKdJeIAD3vL6C7XsbFWmvL5JiZC1vVH4HpQFOJADKk7x2J9FmUDKOo9pS3c4fPi5RpC2tVsMLv/8NV52j/MYmx6RwDXVBiHRarZaXHnmAy2efrUh7Lo+XX770Ga3OHkXaO5Ykh6xhTgV3DBNAJABqkPwmDUUPQLvLyx3vb8ejwIx/jUbDs/f8iuvmzFIgsuOk04Ih9CsmBCHcdDot/33sL1x8tjKlg6uaOrjrtS8IxZxAmQmAGAJQmEgAlCf5TZoUgiWAv1+0U7FJfw///EZuvFCZ7sjjZjKJTX+EAUuv0/HG4w8yc8pERdpbsWMvLy7fokhbPyQpRiQAkUQkAMqTPgRgVXcI4M31+/ikqEGRtm6eO4e7rr5ckbaOmyj7KwiYjEY+ePYxxYoF/WPRt2yuULdcsBgCiCwiAVCe5GIVMWb1JrQV13fy0KelirR17rTJPPGb2xRpSxKTKPsrCNBbJ+A/T5KfnSm7La/Pz52vfE57t1uByI7MbpbVyxmrVBxCkEgAlCe50oXNpE4C4PH5+c2HRfR45Y/7jxtayNsP3heaCn9HpBGT/wThAOkpSSx84V/EOuRvJV7V1MF9b32lQFRHJjMBCP9Wqf2MSACUJ+lNatZr0atUzvapr8opru+U3U52agoL//Egdmt49isAwKAHBbdLFYT+YMTgAt7+1yOKJOZLNpWxcL2ym4J9x2TQoZdeuEskAAoTV1JlaQFJd0e7Sk//22s7eH6V/O19TUYD7/31fjKSExWISlYg4T2/IESos08+ib//7k5F2nrg3ZXUtTkVaetQNpPkuU5WxNRfRYkEQFk2JL5BbSblu9R7vH7u+rAIr1/++p7Hf/VzJiq4M5kkWrH0TxB+yG3XXMFPfiS/FHd7t5v731mlQESHc1gkf4Y1BJMAQSEiAVCW5C4qs/Rdso7qiRVllDbKz+LnnXsmN8+do0BEMomlf4JwTE/+8R5OHDlcdjvLt1Xw0TplJg4fyGyQda0TwwAKEgmAsiRvS6f0+P+uBicvrd4ru50TCgt49p5fKRCRXBrR/S8IfWA2GfnfU38jIU7+pPm/vP8Nje3dCkT1PRlzAEDGNVY4nEgAlCX5Lq5TMAEIAPcvLpHd9R9rt/G/R/6INRJm3RvF5D9B6Kv87ExeffRPaGQul23v6uGRj9YoFFWQTt7nWPQBKkhcUZUVEQnAR1tqWVfZKrudJ35zG4XZWQpEpACTSPwF4XicN3MGv7z2x7LbWfBtKatLqhWIKEjmtU4kAAoSCYCyJL85lRoC6Ozx8uhy+Ut4LjhlGvPODcMGP0ei0wWX/wmCcFwevus2RSoF/vHdlbi9PgUikj0EIBIABYkEQFmS35xahdmlHfYAACAASURBVBKAxz7fQ0OnvEpeyfFxPPdbZZYTKUKM/QuCJCajkdf/8SAWmcN45fVtvPz5NkVi0skblhD3LAWJf0xlSX5n+xRYqrenqYu3Nsjvqnv2njtISYiT3Y5ijCIBEASpRgwu4OG7fim7naeXbqSmVf6qIp+8bQdFD4CCRAIQIZTYnvfvy3fLTiSuOudMLp45Q3YsijEaxeQ/QZDp5/MuY8bEE2W14XJ7+eeib2XHInMoQSQAChJXVmX1SD1QbgKwfm8by4obZbWRkhDHv379c1ltKE50/wuCbFqtlhceuk/2UMD8daXs3Ncsqw2PvD1JlNnLXABEAqC0LqkHenzSn9wDwF+XyS/Y8cgvbiI+xiG7HcVotWBQd4tkQRgohuTn8qc7bpXVhj8Q4G/z5S0LlPmwo2xRggFOJADKkvzmdMv4UCwtamDTvnbJxwNMGzOKa847W1YbihNj/4KgqNuvu1L2qoCVO/excuc+ycd75A0BSH7IEg4nEgBlSU8AJHaL+QMBnlhRJvW0AOh1Op6++3bZRUMUJ7r/BUFROp2Wpx/4rezP+qPz1yJ1Lp/LIzkBCCCGABQlEgBl+ZE4D6DN5ZV0wk93NrKrQd7M3J//6EJOKCyQ1YbidLrglyAIipo67gSuu+QCWW0U7Wvis20Vko5t75Y8VcpF8BorKEQkAMqT1EXV7fYd9wz+APDM1+VSTrdfWmIC9//0OlltqEJ0/wuCah65+5fEx8bIauPpJRuOuxfA7fXRI70HQIz/K0wkAMqTNBgfANqPsxfg85JGiuo6pZxuv3tvmEeMLdJ22BQb/wiCmpLi4/j9rTfIamNHVRNfbK88rmM6umUVKWuTc7BwOJEAKE/yWrzjTQCe/lpaF9x38tLTuOGC82S1oQq92PhHENT286svZ3Butqw2nlh8fL0A7fISAHnrnIXDiKus8pqkHtju8vT5d1eVtbC1Wt7M/wduvg5jJNbYF0//gqA6o8HAg7/+haw2dlQ18lVR37cdl9kDIK8AgXAYkQAoT3KW2tTV9wTgv2urpJ4GgFGD8rly1hmy2lCHRmz8Iwghcsk5ZzBl3GhZbbz4+dY+/25Th6xhfNEDoDCRAChP8pu0rr1vs2Mrmrv5olRyRwMAD956g2IbECnKaBDd/4IQIhqNhvt/+TNZbawuqe5zdcC6NlkrlhrkHCwcTlxplSf5zlzf2bcE4LVvq/DL2FBjwvChzJkxVfLxqhKV/wQhpM6aMZVp48fKauPVL/u2U2BDu6w6PmIIQGEiAVBeveQDO449PuZ0+3h/c63UUwBw19WXyzpeNRqCPQCCIITU/bfL6wVYtGF3n7r369tkJQCiB0BhIgFQXt9nxByivuPYPQDvb66hs0da0SCAgsx0Lj4tgnb7O5DeAJFWjVAQBoDTT5rE9AnjJB/f4/Hx1sqdx/w9mQmA5GurcGQiAVDe8S2MPUBtHxKAdzfWSG0egF9deSm6SB1jF8V/BCFs7rrpGlnHv72qCJ//hwv11bbKmgMg+doqHFmE3gmimuTF+ZUt3fzQyP72mg6K66UX/kmMjeHa2bMkH6860f0vCGEz+7STGVk4SPLx9W1dfFV09NVJgQBUNspauiyv8IlwGJEAKK8diRWrutw+mjqPPg/g/S3yxv5/cdlF2CxmWW2oxiC6/wUhnDQaDXfeME9WG++tLjnq3zW0d9Htljx82YrEKqvC0YkEQB2SM9Xy5iOPkbl9fhZuq5MckNGg5+a550s+XnXi6V8Qwu7KC84lPSVJ8vGfb6886mRAmU//ovtfBSIBUIfkN2tF85E/PJ+XNNHa3fdCQYeaM+MkUhPiJR+vLg0YxPi/IISb0WDghh9dJPl4r8/Ph2t3HfHvRPd/5BEl19Rx5E9AXw5scFLW1EVNew91HT24vX46erws3iF5dSEAN1x4rqzjVaXXQyQWJRKEAeimK+by0DMv4vVJ27XvzZVF+AMBbGYDJr2e5BgLGQl2dtW0yAmrVM7BwpGJq646bgSeC3cQ38lKSaZ8wZuRO/vfagFzhM5NEIQB6OKf3ckHS5eHO4wD3QQ8H+4g+psIvSNEvaJwB3Cgn1xwbuTe/EFU/xOECHPzjy8JdwiHOnaRAeG4RfBdIapFTAKg1Wq4bk4EL/3TakGnC3cUgiAc4Ixpk8lOTwt3GAeKmGtqfyISAHU0AdKn7Cto5vhx5KanhjuMoxOz/wUh4mi1Wn58/jnhDuM7DYidAFUhEoD/Z++8w6OotgD+m02vhJIQSui99yKhh95BUFBUEBUBG6I+FQtWLCgWFJSOgFQRkF6ll9B77ySkEEJ62Xl/DChCErJTdmeT+/s+3veAPece2cncc889xThMEbLqG9bS0SbkjKvIQxUIzMhTvbs62oS7mOJdmhcRDoAxVAGKOdoIF4uFXq1M2vcfUMr/RARAIDAj1SqUo0HNao42A5R3aVVHG5EXEQ6AvliA14B9QCUH20KLerUIKhTgaDOyx9VVdP8TCExM387tHG0CQAUgHOXdKvYsHRH/mPrhBywCvgG8HGwLAI+2NXn4302E/wUCM9O3kykcAFDeqd8AywATn2qcC+EA6EMlYDfQ09GG3MVikejVKtTRZuSMCP8LBKambEgJald1eDDzXjoD24GKjjYkLyCOYNqpB6wCAh1tyL00rVmdYkUKO9qM7LFYwNXx/mds3C1WbNrK/mMnuZ2YSJGCATStW4uwZk3w8vRwtHkCnUlOSWXt1p3sPHCI6Jtx+Pn4UK96FTq3CqVgAX9Hm2dKendoy8Hj2Q/5cQBVga1AB+CAg21xaoQDoI1mwF9AAUcbcj/tmzRwtAk54+qKIxtRpmdk8PEPv/DN1N9ITHpw/kJwYGE+G/USgx7t4QDrBEYwZf4S3h33I5HRMQ/8nY+3F6OGPMXoEc/hKvpS/IeubZrzwfifHW3G/QQBG1EiAjscbIvTIjKw1FMT2AyYcsLO9qk/0tQcGbxZ4+MNHo45YSclp9DtuVfYsGP3Qz87fOBj/Pjh/+xglcAoZFlm+Aef8/PsBQ/9bNtHGrHs1+9F9OceZFmmWJN2WTpOJiAeaAXsd7AdTonjY7DOSTlgNSbd/P19vGlYrbKjzcgZB9b/D3l7TK42f4AJs+YxbvIsgy0SGMnXk2fmavMHWL99N8+985HBFjkXkiTRvnkTR5uRHf7AcqCMg+1wSoQDYDtewEJMUOefHa0b1DV3GFOSHNb+d/OucOYuW2WTzAff/UxElClPP4KHcP1GNGO+n2STzOw/V/D37n0GWeSctA9t6mgTcqI4sBTwdrQhzoZwAGxnMlDXyAU8Pdw1ybdtWE8nSwzCgeV/E+fk7iR4L4lJyfy25C8DrBEYzawly7PM8XgYk+YuNMAa5yWsmbYIgJvxEb+awESjF8lrCAfANgYBA4xQXLtqJT4ZOZxdi2exYba2qZdhjUzuALg6rvxv4869quTWb9+lsyUCe7Bxxx5Vcrm9IsovBAcWpmKZUqrlx454jp3TJvDRC4OookHPQxgIPGWU8ryIcAByTwmURhS64e7mxqBHe7B/2e8cWD6Pd4cPoVHtGhw6ob7kppC/n5E/YPrgoAhAWno6N2JiVcleibihszUCe6D2e4uMjiUtPV1na5yb5hoiiwdOnaFxjaq8N2Qgx+ZPY/1P4+je4hEdrfuH8ShXAoJcIByA3PMTOnag6tOxLUdXL2LqFx9S576EvfAj6idfNqhWGcnM7XUlCVwc89ilpqUhy7Iq2eSUFJ2tEdiDlNRUVXKyLJOSmqazNc5NaIM6qmX3nTj9z/+XJIk2Devy57hP2PzLeBpU1TVhuSDwo54K8zLCAcgdYUB3PRQVLVKYPyZ+w8IJX1OhdEiWnwk/rN4BaFitimpZu+Dg+n+BQKCOZvXVOwAnLlwiMflBJ7pF3Vrsmv4Tnw/Xtf9CL6C1XsryMsIBeDgWYJweihrVrkH40jn0bJf9s5mWns6RU2dUr2H+8j8TVycIBIJsqVimFAX8fFXJZlqtHMjmvWaxSPzvmf78/et3lAzSraHqOMT+9lDEP9DD6Q3U0qqkQ4tH2DRnMiWKBuX4ueNnzmu6ezR9BMBFNJ/UGzVZ7nqSkJTk0PUF9kGSpAeuK23hyNnzOf5905rV+PvX8ZQtrkuFdV1MNJvFrAgH4OG8qVVB20ca8eekb3PVXezEuZx/SHKieGBhigeauP8/OLQBUF7h/OWrvPbJ11QO64lUvi6+NR+hWJMwnhz5LtvC7dMafeve/Tzx2jsENw7Dr2YzpPJ1qdS2B6998jXnL1+1iw0C+1OvelXVsicuXHroZ8oWL8bfv46nUqmSqte5B83v7ryOcABypgXQUIuCqhXKsnDC13i45662/+S5i6rXqlfZVFO7HsRiAYu4/9fCz7MXUL1jH8ZPm82p8/8+KxFRMcz+cwXNHxvMc+98ZFgGe1p6Os/+bwwtHn+WOUtX/qc97OkLlxg/bTbVO/bJdec9gXNRr7r6COPxXDgAACWDAln1wxcU8vdTvdYdGgMmH4nqWIQDkDNDtAh7ergzd/xYAmx4kE88JEyWE1XKZJ1UaBrE6V8TX/86k2Hvf0ZySvaZ7bIsM3neH/R84TXds9hTUtPoNXQkUxcsybGaIjkllWHvfyZaKOdBqlUsp1o2NxGAu5QtXox5n7+Pi0XzFjVYq4K8jHAAsscf6KNFwaevj7B5lraWCECFkBKqZe2CmdsTm5w9h47yv6++y/XnV27eRp9hr5OURea1GpKSU+gz7HVWbNqaa5m3vhyvqaRVYD4qlS2tusz4cuSNLCsBsiOsUX3efOpxVWvdQ19AXeZiPkA4ANnTFQ29patXLM/Lz9jeNPDesK6tVColIgB5lfe+/YnMTKtNMis2baXF44M138mfvXSF0H6DbNr8ATIzrbz/7U+a1haYC19v74cmMmeH1SpzMSLSJpnRzw4kROV6d/BFGRksyALhAGRPVy3Cb7842Oa61uibcZoyqiuV1iVxxjhECaAqom/GsW7bTlWy4UeOU7NzX778ZXqOVwdZkZScwtiJ06jVuS/7j51Qtf6aLTu4eStelazAnFQqW1q17GUbOzN6e3owdsRzqte7QxetCvIqwgHIGgvQQa1wSLFg+nVpb7PcVQ3tZn29vShexMQVABaL0gVQbzKtYFXX3c9ZOHLqjM2n/3tJTErmrS++o1yrLrz91ffsO3ocqzVrfVarlfAjx+98vitvf/W9pmuEjMxMDp9U39fCtFhl5dnLh2TXwCw3XI60/R3Xv0MbqmpwOoBOiL0uS9TEZH1QPKoWQCOgJFAU5R84HjgPHAc2AqsB9TFtx1EVKKRW+JVnBqiafnX5eoTaJakYUtLcLYDV3v9nWJHjkyEhFZLSkFMyIDUdMqwPvoBdLeDmguThBp5u4OOO5OcBPh7gYtH07+PIf9vbCYm66ImIimHsxGmMnTiNggX8qVahHMWLBlLQ35+b8fFcjbjBsTPniIu/rct6d3FknwBN33l8CvKtdEhMhZQM5JR0yMhUnr17cbEoz56nG5KHK3i7g68Hkr+X8ud5jJDiRVXLXo6MsllGkiSe79WV176ZoHbZQKAyyr7kbJQCOqJ0Nqx65/cFgUzgBnAJ2ANsAZYDNv2w2bJLVQL+BzxG9nfj/kDtO78eB6zAGpTezCsAZzmqqZ59KUkS/bt1VCWrZeBMSFHdOmgZgy39/2+nIMckIsckKi/f3JJhVRyG5H9L4GQASUIq4IV3QW88PdxVZccXKaTbGAibKVxQ/7Vv3oq3W8+AQgUK2GWdLNcOULe2h6sb3qdjkHPjQGTecUZTM/7zgpMBfD2RCnkjFfYBP09VtpiNksFaHAB177inurTnnQmTSVY52wHlsOosDoCEkrcwAmhP1tELF6DYnV+N73w2Efgd+AI4nYXMA+TmrVwAZRDOMZRxuLYkxllQvJflwGHgacBxs2BzT321gjUrV6C4ys34io0JMvcSXFh1wMI+PCwCkGFFvnwT696LWPdfRr4Ua9vmnxOyjByXBOejqRSkrstYlXJl9bFFBXWrVcHTI3d9JMyGl6eHpu5xWqlSrow6uWLF9Yn6JKQgX4rFuv8y1r0Xka/EQXqmdr0ORIsDEKFyGmchfz9a1NPUkFX1O92OuKPssUdQ9syO2HZ14QM8i+Lo/Iiyd+fIw5Q/AhwFXkTxOLRQHZgOnAVeAzR3eTCQimoFO7ZopnrRiKho1bJFCxdULWsXsnMA0jKQz0Vj3XUe+Xw0JBk7ga1nvUaq5Hq1b6OzJbnHy9OD/t06OWx9LTzRo7NDnZdeHdR9bz3rq3tOciQpDflcFNbdF5DPRTutI6C2CgAgVsP1Uqt66ocRoUSwzUoBlK6F54GpQDWN+lyA4SiORI7R7JwcgCdR7vH1Li4PAb4BrqJ4KWZsXl9erWCLRupnZsfGqc+WNncEQHrQAZBl5KtxWPdcRL5y024JVS+160SAt49NMvWqV6Vrm+YGWZQ7PnxlqE0NpcxAgL8f74143qE2dGvTwuYIREEfH0aEGehwZVqRr9xUHIGLMaByRLWj0HIddlOLA1C/tmpZNLzTDaQ6yh54CSVsX1xn/SWBTUD/7D6QnQMwEOW0bqTr7ofipRwD1qIMbjBLobjqerqyGprxaCmXKlrIxBEAi/TfCoCEVKzhl5DPRtk9k7qQjy/ThgzDksvwrp+PDzPHfYxFe0cyTZQqHszMrz9WlVzqCNxcXZn59ceUKh7sUDssFgtzx4/N9RQ7iyQx7dnhFPKxQ++YTCvyxVis+y5DorGRLz0J8PdTfT2iJQJQpUwp1bIoB08z4I6SH7cZ5YQ+HCV3zig8gFlk4wRk9VZrBkxBe8g/t0hAGPAH/3pCjowK+KIhT6G0hklWsbduqZY1dQTgntO/fDUO64HLhof6c6J73YbMffFVfDxyHs5UMrgoG2b/QvWK5jg8dGvbkt+/H6vn3HRDcHGxMOPrj+nWtqWjTQGgSvkyrJkwnhIFc/4Z8fHw4Pdhr9GtbgM7WXaHxFSs+y8hX4uz77oqcXN1xddbXY+0m/G3c2wjnRMBfr74qVwXZSNULawDNYCvUPa4uShVdPbCBeVA3/T+v7jfASgEzMdxiXrFUO5CjgNbURIa7J1CrPooXTigAD7eXqoXvnlLvXcc5MAs9YfiYgEZ5DNRyqnfBHX7jzZsytHPxvNC63YU8f1vaL1sYBDvP/M0R1cvokFNrddx+tK7Q1tmjvsEdzdz5tK6u7kxa9ynqithjECOiKeB1Z8jn37L6O59KBv43zvsQD9/hrZuz7HPx9OngeoCIG1YZeXn41SkU9RKFQpQd2jNtFpJSFY/vrqktmone78kA4GXgXCUJPhRKCXzjsAdWMB9+9v9cZxfAM1tl3QmBViJ4jUtB4wefl4OJVHRZkoUDeLK9tWqF/ar2Ux1zfS1lQsoZtZGQF5eyOdilbI+E5JptXIt7iYxCbcp6l+AYgHKz4hUpjBSKXNGVraFH6DPsFH/mcbnaAoHFGDBhK9o3UTTAE1dkS/GIF98MPP8etxNIuNvUdjXj+IBBfUYOqMbUmFfpGrBxjTO0omanfpy5JS6Bk831iwmUGVpa+0BQzh0+pwqWaAMxvel8QO6oYT5O2K+qrdJwNC7v7n3qa+Fxul3BuEJ9EKJTESi3Gd0u/PnRqA6NTc1TVtYOzlVfcc1r4eEsx2GDPJ5827+AC4WCyGFClOnVJl/Nn8A+UKMkqBoQprVr8OOhTM0zWfXk3rVq7L3zznm2vyvxmW5+QMUCyhInVJlCClU2FSbP4Ack4B8PMLUkQAtEai0jAzVsukZmionjCq78EHpj7MIZY+ajbJHmW3zB+WAX+Pub+598t/kwYiA2fBDqU5YCkShOAX90feaQPXTqWUGe0ZmpqZ2r2atE5cjE5Gjzbv5Pwz5XDRyVIKjzciSsiEl2PXHLMa++TIe7o75/t1cXXnrhUHsWDSDMiX1TmJWjxyVoFw3OSlydIJSFmtSPNzV722paerfk1resejrAASjXFEvQunI9zvQG1B/B2wfLCh7/T+/AeXuv59DzFGPL8qoxzkoX8BKYBigtWOLuk4VKHPQMzLVPWOpGma3WywSHia8E5ZvpyFHG31jYzzyqUhI0vTiMQxXFxfeemEQ+5bNpWsbe+YVKUmJh1YsYOybL5srJyE5XfnOnBz5yk3kGHM6n+4aHAC1m7jVKnPlhianTks4TwIaAB+gtN69BkxG2fQdmVyohse4kwtw1wHohTnDFbnFHeW+ZQJwDqW08GugLbaXMiYDqrLx0jMyOH3+khpRUjRcH3i6u5tvDkCGFfmKvj3lHUamFeupCFPXa1erUI5lv37HzkUz6djiEcOeB4vFQqeWzdi1eBZLfxlPlfJlDFlHNbKM9UREnhnUI5+MNGXDIC0OX6pKB+By5A0t0YN4lHwyW/BF2Rsno/St2QN8iOIImOyFaxPuKGX3/9Tdq558Z1Kq3vn1Ospm/jdKQ4SNwAEeHgqKQGWnwkMnT1G1gu1BCC0RAE8HhX9zQo5Mgkzzbpg2E5+CHBGPVMxxfe1zQ+M6NVk5bQLnL19l+qKlzPxjOReuXNOst1xISQb26sLTvbtp6nVhNHJEPNxWn0tjOjKsyBeikSo6Knk8a7KbJpkbJJV754kL6g5Xd8jNpDUJ5X68DUov/pYo5YN5kQ7AtLsOgKbCVxcXF9zc3ElJMWW41w9leuHdmdBxKA7BRhSn4BDK0KJ7OYHKdsCHTpzmsS62+1NWWf0PlKPuf7MlJQP5Zh56Cd9BvhCDVNRfaWxkcsqGlGDMqy8y5tUXOXnuAuu27WLz7nCOnDrD2YtXcgzDuru5UaF0CNUrladV4waENWusaQa83ciUkS+YpypCL+SI20glCipTBk1CuoZEPldXdX0s1u/Zp3pN4FQWfyahtN1tDbRC2fCLaFnEHnh6epGenkamyuvmOzQEJQLgh4Z780aNWvDll9MoUiSI1av/YPLkcRw/flCLYUYTAHS/8wuUO//NKM7ABpTZB0dRsjhtZs2WHXz6+gib5Vws6pu7qM07MIq8cO+fJemZyJHmjwLcT+VyZahcrgzDBz4GKM/L5WsRxN6KJz4hgbS0dNzd3fD39aVwQAFKFitq+mZDWSFH3DJluFwzsox85SZSJfNEATI0ZOOrfbZW79yjek3+nQRYlf9u+OoHG9iZ2rXrMWL463Tt0ovo6BsMffEptm3/W626soDfXQ/oqBoNbm7u/P33OQoV+m9zhq1b1zFlyji2b9+g1jhHEgVEozwoqji1/k8q2ti2Mir2JkEN1Q0uKeDrQ9zGZapkdSdTxnoi1tT35ZrwdsfSwAlOw/kQ694Lpk3W1IwkYWlaFlSenvWmUa8n2XNI1bbB2SWzKVfCto6p565ep0KvJ1V3EURxAAqiZO87DZIk0S6sE8OHjSQ0tNV//i46JoqatUqTpj5/rLoFUN1guV69pg9s/gChoWFMm7aSxYt30rlzX1xcnKN/+R0C0bD5A/y+3PZmQFpOXGnp6sNxeiPHp+bdzR+UFsYObGMsyIbE1Ly7+YMSBTBRLw17RwAmLlqqZfMH5Z3uNJu/h7sHTz4xmG1bDjJ3ztIHNn+AIoUDadToES3LlLSgYUhC6dIVcvz76tXr8u23v7Fp0xlefvl9goPNmzykJzMWLbX5jsxFkwNgohffbRPZYhBmehELFPLFd2Ki/0YtTc/cbIxiJKemMnXpStXrORMlSoTw1pvvc2D/Wb4b/wuVK+fcirx0KU1V7yGaHIASJXIXCg0KKsbw4e+yYcMpJkxYQGhomMOnqxnJ2UtXmDzvD5tktEx5y7RaydSQlasncl4+hd0lL2WZ5xXywXcim+i/MT5BvTPi72PbOO4JC/4kRsOkVLPj6upK5849+H3uMvaHn+HNN94nKCh3wYrixVUPrgUIcUXDFUBuHYC7uLi4EhbWnbCw7ly8eJZFi6azdOkcrl+/otYE0/LRD5MY2KtLrqdmeXl64OriojqhLy093fHtgDNkyDCHI2IkckKqUxcB50VkJxqnq5rUDCXJ0c3xeQDxCeoaFLm6uODjlfsu7pGxN/l48kxVa5mdMqXL8eSTgxjQ/xmKFlU3RbZ4cU1R9RALygQ+VRQtqr71Z+nS5Rk58mM2bDjNjBmr6dVrID4+qkrvTUlEVAxfTJxuk4x/LmeWZ0Wyhj4CuqGtT7fzkGaenAvBHVLzyXeS5vifMavVyu1EdUPLCvjadvofNX4i8SrXMiP+/gXo//jTLF64mj27T/Daq2+r3vxBuTLQQDELKhveABQsqH36nMVioUmTVowdO5lt2y7x9dfTCQ1tp+lO3CyMnTiVHfsP5frzfj7qO0rG3LqlWlYv5LzU+CcnrLIpRhoL7pBpzduJp/digjLH24lJqhPybAn/T1++it9WrlW1jpnw9PSiZ4++zJqxiBPHrvLjD1No2bKtLtfgxYtpugLwc0Vpd6iKggX17Zng5eVNt2796datPzdvRrNu3VJWrVrMzp2byMhwvrvljMxM+o14k12LZ1E8F3Os/X3VRwCibt6iYoimh0E7+eQdDCgOgBM0BMoX5KPnTpZlh18/3bqtfj5BbiMAB0+fZdjY71Sv42jc3Nxo1TKM3r0fp3On7vj6GhPdLlJE0x7se7cRkCoKFCj48A+ppGDBIvTtO5i+fQcTH3+TdeuWsWbNH2zbtp60tFTD1tWbKxGRdB3yMut/m0TBAv45ftbfxvDYvUTdjFMtqxeSi5Q/3sUS4Jp3k1idDhcJJClfRAEkE9z/R99UP1OnoP/DDznHz1+k08v/IznVed7zAL6+frRt04FOnbrTLqwTAQHG7Y938fTUNHxQfQTAxcUVNzf7tKb09y9I795P0bv3U9y+fYstW9awadNKtmxZQ2ys+Ud+7j92grCBQ1k1fQKBhbJ/KAoXVN9hzgwOAC6OPpvYCZM05k4K8AAAIABJREFUYxHcQZKUZy8j7zsAZnA8r99QP6Y4uHChHP/+6LkLtH3xdSJjtQzusx9BQcF06tiNzp170Lx5azzc7ZuIrdEBUB8BcLfzf+hd/PwK0LlzXzp37ovVauXQoT1s2rSCzZtXcfz4Qa3NIgxj39HjNOr1JEsmfkvtqpWy/EyxwIdfE2RHdJwJymTcXJQXcR7PBZB88up8ECfG1wPi8mgL6ru4WMDD8U3VIqLUz1vIyQFYvHELz378FXEarhiMxmKxULt2Pdq07kD7dp2pV6+hQ0va3dzccHV1JUPdbAY/V/6dCGgTjnIA7sVisVCnTmPq1GnMq6+O4caN62zevJLt2zewc+cm00UHLly5RpM+A/lk5AheG/zEAw9OsSD19zlRcSaIAEiAhwsk5fGMbF/HP/uC/yL5eCDndQfA10OJdjiY61Hq36tZOQDJqam89cMv/GBj7xR7UbRoMVq3bkeb1u1p1SqMwoXMNS/I09OLhARVo9ddXYF0wOaYpunmz6M0HLqbNyDLMidPHmbHjo3s2LGBPXu2kpTkeM8yJTWNUZ9/w5ylKxn37khaNf53EGNwoPqqioiYWD3M04zk646c1x2AguqrNQQGUcgHrprACTYQySTPnZYrgGJF/n3HWa0ys1as4b2J07gceUMP03TBx8eXJo2b0bx5a1q3bk/1ajVNud/dRYMDkO4KqHpbp6eboO48ByRJokqVWlSpUotBg14hIyOdgwd3s337Bvbu3crBg3tITnZca819R4/TesBztGhUj5HPDqRL6+aargDOXb2uo3XqkfzdkW/knbrdB3C1IAVouncTGIAU4IXs6pKne1FIRdRXCenJtUhtEYBbCYnMW7uRCQuWcOj0OR0tU4e3tw+NGz9C6CMtadasFXXrNsBVQ2dWe6NhL06/GwGwGWcry3N1daN+/WbUr98MgMzMDI4e3c++fTvYu3cr+/ZtJybG/lcGf+/ex9+79xFUuBANa1VXrefM5as6WqUBT1fwcoXkvBkFkIr6myIMK7gPSUIK8kW+5vh+GIbg5wne9km6fhjnLqvv3Dp2xhx2HDrm0Az/wMCiNGjQmAb1G9O0aXPq1W2Im5ubw+zRSmKi6sh2ugREomImsiRJHD2amCca9tzl/PlT7Nu3nfDwHRw+vJezZ4+TqbI1ryOI27jM5k5bRiDHpyJfUhWSMjcSWBqWAU/nfVnkaVLSse65kCf7AkjVipkmAuBXsxkJSc4R5XNzc6NGjdo0qN+EBg0a07BhE60DdExFSkoyJUJUV/JfdwVUuWKyLHP7dhwBAdq7AZqFsmUrUbZsJfr0eQaApKQEjhzZx+HD4Rw8uJvDh/dw7dplxxqZA2evXKNelYqONgPJ3wPZMxlS8lYUQCrqLzZ/M+PphhTkjxxpgooYPfFxRypsjs0/MjrG1Jt/sWIlaFBf2ejr129Mndr1tJbKmRqVd/93SXEFolE5ETAuLjZPOQD34+3tS6NGLWjUqMU/fxYdfYNDh/Ywbty7nDlz3IHWPYhZHAAASzEfrOfzUDjW1QWprLmyfwUPIpUroowGzkO5AJbyQTi8/d8dzl4y3+C2KlWq8cao92jYoInW3vhOR4L68D9AtAVQnX5586b6bFBnpUiRINq06cK0aSsJCTFXKOnslWuONuFffNyQgsxxatEDqXygKaawCR6CmwtS+bzjqEklAsBESadnL5rLAShXriKLF66mZ4+++W7zB7gZq6n664YFJQdAFVeuXNSyuFMTFFSM6dNXERysaRyjrpy8aK7rCSkkIE/UzEvF/JGK5p1JlXkdqag/UnDObbedAj9P00Wdjp91fNb+XUJCSrNk8RpN0/ScnfMXzmoRv6EpAnDlygUtizs9JUuW4bff1lO2bNad/ezNvpOnHG3Cf7GApVpxU3QvU02AF1J5m3NkBQ5GqhAEBcxzcrYZD1cs1YJNN3Dq0InTjjYBgGpVa7Bi+eZ8eeq/l/Pnz2gRv2EBItRKX75sHm/QUYSElGXevM00bNjc0aZw7NxFcw3QsMrg6YqlVklwd0InwNdDcWBM9hIW5AKLhKVGceeMQLm5YKlZEjzMl3BqBgegVaswVvz1N8WLO3j6qQk4d15TBCDCAqj+Rk+ePKJl8TxDgQKFmDr1L/r1e9ahdmRkZpqiscYDeLlhqV0SvMz3QssOqYC34riYYPiKQCUuFuU7dKZIgKcbltoh4G2+n5Wbt+K5fF31eVEzkiQx7MXX+H3OMvz88sAVjw5c0OYAnLYAJ1RLnz5KZmbeKvVSi7u7Bx9//BM//DDPoZUR+0zgoWeJ150Xm7+noy15KFKQH1Kt4mLzzwu4WrDULOEcORx+nljqlDTl5g+OPf0HBQUzf95ffPzRV07dtEdvzpzV9J0ctwDnUNkLIDU1hXPnTmoxIM/Rvn1Pli7dS5s2XRyyfvgJM+UB3NeRxd0FS+0QpNKFTFPW9B9cLEiVgpCqBItuf3kJi4RUORipajHTOnVS8QBl8zfxVdmB4/Z/10uSxGOPDWTL5n20ad3e7uubmfPnzxAdrTqFLxm4YEGZBaA6k2Dv3q1qRfMsRYsW5+efFzNjxmoqVaph17XDj5vIAciqI5sEUunCSjTARPezUmEfLPVLIQUXcLQpAoOQAn2x1CtlmqY6APh6YqkbglQh0PRO5879h+y6Xq2adVi+bBM//TiNIkVEIu79bNm6SYv4ScB61x0+qlbLrl1/azEiT9OkSSuWLNnFJ5/8bLdKgaPnLpCUYpJEQDmHnqz+nljqlkKqGOTYZCdfD6SaJZCqFxdd/vIDnm5I1Ysh1SgOPg50QD1ckSoGYakbovT5dwJ2Hjhsl3Xq1KnP1Cm/s37dbpo0bmaXNZ2RHTu2aBE/Cv8GYl8FvlWjpXDhQLZuvfTAbHvBf7FarWzatILp079nz54tWK1Ww9Za/cOXtG/S4OEfNBo3N/DLxWlLlpEjbiNfi4NEOzgvkoRUwBNCCplmxKrAMcixiXAlDjnOTu1tfdyRSgQ43VCpiKgYijUJM0y/h7sHbcM68tyzw2nRoo1h6+QlatYuw7VrqhszjQAm3L1wUh3Hj4mJ4uDB3dSt20StinyBxWKhTZuutGnTlYiIq6xYsYC//prPsWP7dXcGNuzdbw4HwJrLqSySpDTbKeYPt1OQI+ORY5IgVeeJkz4eSIV9lCYx4rQvAKRCPlDIByklHTkiXmkjrLcT6uGKVNhX2fT9zHPtZQs7D+gf/vfw8KRRo6b06tmPHt0fJSCgoO5r5FXOnz+jZfOHO3v+XQfgAJAAqLocW79+mXAAbCA4uASDB7/K4MGvcutWLOHh29m9+2+OHNnHhQuniYrSVmqzce9+nSzViKzCsfHzRPLzRKoAJKYixyUrTsHtVEi2Ye61JIG3O5K/J/h5KCd9E9ZVC0yCpxtSmcJIZQpDagbyzaQ7z10KJKblfJ11L5Kk6PLzUJ7lAC/HXjXoxI592hwANzc3SpcuR4UKlahVsy6hzVrSoEFjPDyc4/rDbPy5dJEW8VvAYfhvLvZaQFWMp3Tp8qxefRTJiUJaZiYx8TazZ09k3LjRquRdLBai1y0hIDfhdyORgII6evWyrLycU9Ih3QqZVv7JNJQsSra3h4uy0bu7OFWIVWBiZCAtA1LSkdMylcjWP86tBC4WcLMgebopXS/z4HPXqNeT7DmkLlVs9LsfM2L4KFG+pyOPhNbi5MljasVXAp0B7r24X69W28WLZwkP36ZWXHAfPj5+dOr0qGr5TKuVv+2csZsl8j//ow93T1cB3kiBvkjB/kjBBZRfRf2QAn3B3yvPvoQFDkJCeaYKeCnPXVG/f5+7YH/lzwK8lWulPPjc3bwVz76j6iefduzQXWz+OnLgQLiWzR/u2evvdQD+1KJx8eKZWsQF9xESUpbixUupljfNNUCmjg6AQCCwOxt37iEzU12eUpEiQVSpUk1ni/I38+b/plXF0rv/514H4Diguoh8xYoFxMXFaDFKcB9NmrRSLbtm5179DNGCmjwAgUBgGtZv361atnloK3E1rCPp6eksXvy7FhVHuaf9//21e6qjAMnJScyZ84tacUEWaHEAjp2/yKlLJpjdndvkKYFAYEo0OQDNW+toiWDhojlEx0RpUfGfPf5+B2CxFs2zZ/9ESkqyFhWCe2jcuJUm+cUbNDWK0IfclgIKBALTcfrCJU6eu6BavoVwAHTDarXy/Q9fa1Xznz3+fgdgJ6A6uyA6+ga//fazWnHBfQQHl6BChaqq5RdvNEGXRnEFIBA4LUvXbVYtW6JECGXLVtDRmvzN0mWLOHVKfTImcAgIv/cPsmrfN1XLCpMmfUl8/E0tKgT30Lq1+qFCe4+f4lKE6mER+mBgx0OBQGAsS9dvUi3borno6KcXGRkZjP1ijFY1k+//g6wcgBmADR1X/kt8/E0mTfpSrbjgPrRMFZRlmT82OfgaQGX2sEAgcCwxcbfYHn5Qtbxo6asfM2b+yunTJ7SoSAFm3/+HWTkA0WjMBZg+/QdOn9ZUpyi4Q+3ajSlUKFC1vMPzAEQEQCBwSv7auIWMzExVsm5ubrQL66SzRfmT6OgbfD72A61qFgOx9/9hdhN8vtKyUkZGOh999IqhA2/yCy4uLrRqpf4HadvBI1yPdmB5pngGBAKnZP5fa1TLPvJICwoWLKSjNfmX9z54k5s3H9i7bUEmmz09OwdgH6D+2wd27/6bWbMmaFEhuIOWPIBMq5VZK9bqaI2NyLJwAgQCJyM27hZrt+5ULd+1Sy8drcm/rN+wmgULHojc28pKlHk/D5DTDN/Pta46btxozpzRlLUoAJo3b4e3t/q+/lOXrtTRGhVY1YURBQKBY5i/Yi1p6eqmcVosFjp36q6zRfmP6Jgoho8YjKy9l0q2e3lODsAmNIwJBkhNTeHVV58gOTlRi5p8j5eXD23bdlUtf/LiZbYdPKKjRTaSIRwAgcCZmLtM/aGhfv1GBAcX19Ga/IfVamX48EFERUVqVbWRHPbxnBwAgFFonOZy+vRRRo9+UYsKAdCly2Oa5B0aBRBXAAKB03DpWgRb92YZMc4VXTr31NGa/MkXX37EuvWrtKqxAm/m9IGHOQC7gHlarVi+fB6TJ4/TqiZf07x5OwICCquWn79uEwlJDurSKCIAAoHTMG3hn5oSuLt2EQ6AFpYtX8y4bz7VQ9UcIMehMA9zAADeAVK1WjJu3GhWrFigVU2+xdXVjY4de6uWT0hKZv66TfoZZAsiAiAQOAWZmVamLliiWr5G9Vqi+58Gdu7axgtDn9Lj3j8ZePdhH8qNA3Ae+EyrNVarlf/9bwhbt67Tqirf0qVLP03yk5f8pZMlNmK1ioZAAoETsHrLdi5di1At//jjT+loTf7ixIljPDmwF6mpKXqo+xS49LAP5cYBAMUB0DxgPjU1haFDe7F+/TKtqvIlDRs2p3Tp8qrldxw+xo7DDmrQlJnhmHUFAkGu+WXuItWy7u7u9O37hI7W5B/OnDlJ70c7aK33v8shIFfteHPrAGQALwKaL3PT09N45ZUBwglQgSRJPProIE06xv02XydrbCRDRAAEAjNzNfIGf21U3zm0ffsuFCmsvmtpfuXUqeN069GWyMjreqjLAAYDuarhzK0DAEpCoOZZhKA4AS+/3J9Vq9R7m/mV3r2fwtXVTbX8kk1bOXvlmo4W5ZJMdTXFAoHAPkyYNU9161+AJwZoO5zkR8LDd9OlWytu3FB/7XIfX3LfxL+ccLFR+WagHVDSRrkHsFqtrF37J4GBwVSvXk+runyDt7cvJ08e4uxZdYMhZFnGKlvp3KyxzpY9dGHw8gAk+64rEAgeSlJyCk+OfJfkFHX53sHBxfnqix+wWGw5U+Zv1q1fRf8B3YmPv6WXyu3A0yjlf7nC1m8rHehHFkMF1JCZmcF77w3j/feHk56uegBhvqNv38Ga5KcuXUnMrXidrMklsiwSAQUCkzJj8TJi4tRvRP0ffxoXF1vPk/mXGTN/5Ykne5KUpFuTvDjgCZQrgFyjxl27DDyLDV7Gw5g3bzIDB7bnxg1d7kDyPM2ahVGyZBnV8kkpqUxctFQ/g3JLhkgEFAjMhizLfD9jjmp5SZIY0F9k/+eGlJRkho0YxMjXXyRDv/ehFeXkf8FWQbXxmiXA+ypls2T//h307t2E/ft36Kk2T2KxWHjyyWGadPw4fwnJqZrbO9iGcAAEAtOxbP3fnDh7QbX8I4+0oFy5ivoZlEc5efIYYe2bMG/eLL1VjwZUnei0xGy2AhWBmhp0/IekpAT+/HMOsixTr15TLBYRUsqOihWrMWfOJNLS1G3iCcnJFPTz45Fa1XW2LAdkGTw97beeQCB4KANfH821yCjV8p9/+i0VK1bW0aK8x6zfpvDUM325fl33BOxZwOtqhbVkbMgoVwHq60ayID09je+//4hHH23G8eMH9VSdp/D19advX21Zt2NnzOV2UpJOFuUCqxU0ZBkLBAJ9WfX3dvYcOqpavnz5SnTooH5QWV7n2rUr9HusC6++9gLJybq/azcDz2lRoDVlMwXohg5Ngu7n+PGDPPpoM777boxIEMyGp54agYuLq2r56LhbfDtnoY4W5YJ0cQ0gEJiFT378VZP80BdeFpn/WWC1Wpkx81eaNa/N+g2rjVgiHOiOxjb9enxzt4COwEkddP2HjIx0fvrpM3r3bsqePboGGvIExYuXokOHXpp0fDN7AbHxt3WyKBeonDEuEAj0ZePOPWwLVz/1r1ChwvQXrX8f4NCh/XTsHMrI11/Us8TvXk4AnQDNpVx6uW43gLYohunOqVNHePLJMIYNe5Rz53T3M5yawYNf1SR/KyGRL2f+rpM1uUAkAgoEDkeWZd79+kdNOgY9MxQvL2+dLHJ+rl69zKuvvUBY+yaEh+82apnjKHut+qSNe9C7K0sQsAaorbPef3BxceXRR5/h5Zffp0iRokYt41QMGdKNLVvWqJb38vDg9B+zKBFYREercsDfFzR0MxQIBNpYvHo9fYaNUi3v4e7B/n1nKFq0mI5WOScxsdFMmPANk375gZQUQ0euHwPCAN3q5fVOs08EFgAt0aFbYFbIspWjR/cxf/4UMjMzqFy5Jh4e+TuzvHTpCixYME21fEZmJimpaXQJbaKjVTkhgbtwAAQCR5CRmcmjw0cRfTNOtY7H+g3M94N/4uJu8vW4z3ju+SfYunWTnnX9WbELpQvvDT2VGlFnlwzMAaoDVQzQD0BaWiq7dm1mzpxJxMXFUKFCNXx9/Y1aztQEB5fg4MHdXLp0VrWO/SfP0LNlKEULF9TRsmwQ5YACgcOYMn8J0xaqbwTm4uLCLxNnUbiwnSKGJiM2Noaffv6WIc8NYNPmdaQbn9f0J0rCn+7tW41szO4C/ArYZUKEm5s73bo9zrPPjqRChar2WNJUHDiwi8cea6FJR/O6Ndk8aTySZId+/QX8QbQOFQjsSkJSEpXDemqq++//+NP8+MMUHa1yDg4fOcivv/7IosW/Gx3qv5dpKKV+htRPG1m/kQkYlglxP+npaSxePJOuXevywgs92bDhLzLz0Qz6OnUaExraTpOOLfsPM2f1ep0seghporRTILA3n/w4WdPm7+7uzhtvjNbRInOTkZHBn0sX0q17a1q1rs/sOdPsufkD7MSgzR+MH832EfCewWtkS1BQMXr1GkifPs9QunR5R5lhNw4d2kO/fs2RZVm1juKBhTmxcAZ+3gZn91osEFDA2DUEAsE/nDp/kZqd+pKmIWQ9eNBQvvpSW/WAM3D9+lV+nzeTadN/4erVy440ZQzwoVHKjY7BPgE4bNZvYmIC4eHb+O23n9i9+29cXV0pVao8bm55MwGtaNESnD17gtOnj6nWcTspmfSMDNo3aaCjZVkgy0oioGgiIhDYhYGvj+bkuQuq5T09vZg2dR5+fnkz1yo2NoZ583/j/Q/e4N3Rr7P57w3cvm3nqakPcgpYbpRyoyMAK1AaFpgGLy9vWrToQIcOvWnVqhM+Pn6ONklXLl8+T6dOtTR1T3RzdeXgnF+pWra0jpZlgZcneHkZu4ZAIGDZ+s10f15bz5BhL77Gxx99pZNF5iAh4TYrVi5l8eLf7ZXQZyvLUbrtGoLRDsABDOwJoBUPD09CQ9vRoUMvWrfugr9/gKNN0oXPPhvFjBk/aNLRoWlDVn3/hU4WZYPFAgH+GP8YCgT5l9uJidTo+CiXrkWo1uHr60f43lMUKRyoo2WOITomio0b17Jy5VJWr/nL3nf6thIOGBaONfrNewNwiifG1dWNevWa0qxZGKGhYVSrVtdpe1zHxcXQrl014uPV1/kCbJvyg/HTAv18IY9eyQgEZuDlMV/wg8Zun2+Meo//vfWBThbZl8zMTML37WbdulWs37CKQ4f2Y7VaHW1WbrkOFDdKuZEOgAdKTwCnPN4VKhTII4+0ueMQtCMoyLk6Xk2e/A1fffW2Jh0j+vXkhzde1smibHB3B18fY9cQCPIpO/YfIrTfIE0bXokSIezcfgRvb+f5OY2IuMb6DatZv341m/9eT1zcTUebpJZMlL3UkEoAIzfn0sAFA/XbDUmSqFu3KQMGvEDXro/Zp05eI2lpqXTrVp8LF06r1tGwWmV2z/hZR6uyQoKC/iA5Z7RFIDArqWlp1OvWn2NnzmnSM2XyXHr26KuTVcaybPliJk78jl27t2uqhjIZJYBrRig28q1rWNjC3siyzL592xk16mmGDOnK7duGTHjSFXd3D95//ztNOuJuJ+pkTU7IkGq6xBuBwOkZ8/0kzZt/aGgrp9j8U1NTeGZQP54Z1I+du7blpc0fwLDws5EOQAm1gn36PMOgQa/g6Wm+DPGtW9cxdGhvp2gy1KxZWzp27KNaPrCgner0U1OAPPUDKxA4lK179/PlL9M16XB1dWXsZ9oOEfZAlmUGDX6MZcsXO9qUB/D29mHE8Nfp1+9JLWqc0gFQ3Si6SpWa/O9/X7Ju3QkGDhyGu7uHnnZpZu/ercya9ZOjzcgVb7/9Fd7evqpkG1YzbJTDf8m0Qrr5HSqBwBm4nZjI06PeJzNTW6Lb4EEvUrWqwUnAOvDb7KmsXvOXo834D3c3/v3hpxnz4RdUrqSpPb1hA1qMdABU19TdHfMbGBjM6NHfsnbtcfr3f8FUjsC0aeOdIswUHFyC4cPftVlOkiSe6BRmgEXZkJJqv7UEgjzMqx9/zbnLVzTpKFIkyCmy/mVZ5ttvxzrajH/w8vJm+LCR/2z8RYoEARAYGKRFbf5yAAIDg//z++DgEnz44fds3HiGYcPeoWBBx0+hioi4yqlTRxxtRq545pmXqFatjk0y/cJa0bBaZYMsyoL0dMg0rOW1QJAvWLBiLVMXLNGs5/33PqVAAfP3RTl2/AgXL513tBn4+fkzfNhIDuw7w0djvvxn47/L/b+3EcO+CFM6ANmV3BUpEsQrr3zApk1nGDPmR8qVs+MGlQUXL6ofv2tPXF3d+P773/+JrDyMGuXLMumdkQZblQWpIgogEKjlzMXLDHl7jGY9LVu2ZUD/Z7QbZAdOnDjq0PWrVKnGV1/+yJFDF7Pc+O8SqM0ByN8RgPvx9PTi8cef46+/DvDrr0sJC+uOi4ur2uVUY7U6z4k1JKQsCxZspW7dpjl+rmvrNmz59TsKOKI2PyUNnKdBh0BgGlJS0+g74g3iE7RV7vj6+vHdt784RakzKNn/9sbNzY0e3R9l6ZL1bNtyiMGDhuLrm3NL+SKBmvrhGRYBMHLXVGW0l5dPrpPWLBYLLVp0oEWLDty4cZ1Fi2awYMFUrl69qGZpmyla1LkqHYsXL8XcuRvZuHEFK1bM5/jxg8TFxRIQUIj69ZvRs+cTNKjXGO+Eg2B1RHtMWckF8DZf9YdAYGZe+ehLDhw7qVnPhx+MJSTE4BkgOhJS0n62Fi1ajKefeo6nnxpCcLBt7/6gwNxFX7PBMAfASDdvJ9DYVqGgoGJs2XJB9aJWq5Xt29ezZMlvrFu3jORkY2rZvb192bHjiilLFbXimZlASOJhJBxwGpckZUywk5xABAJHM33RUga9qT1hr0WLNixeuNppTv+gDPOpUq0EyclJhuj39y9Al8496dWrHy1btMXVVf2ZuXTZgiQk3FYjuhlopXrhHDBlBEALFouF0NB2hIa2IykpgXXrlrJs2e9s27Ze19r9bt0ez5ObP0CKiy8xnqUoknLB/ovLMqSkiCmBAkEu2HXgMENHf6pZj6+vH9+Nd57Q/118ff3o0/txfps9VTedXl7edOzQld69HqNtWEc8dKo+K1yoiFoHwCkjAJGAzZkP1arV4Y8/duluTExMFGvXLmHt2iXs3LmZjAz13ef8/QuyYsWBh+YqODslko7hk+GIHtqiPbBA8DCuRUbRsNcTXIuM0qzr668mMOiZF3Swyv5ERUXSLLQ2MbHRqnV4eHjSpk17evXsR6eO3QyZe9C8RR2OHVdVOXYJpbW+7hjpAKQC7rYK1a/fjDlzNhhgzr/Ex8exadMK1q1byvbtG2xq7evl5c3PPy+madPWBlpoDlys6ZRO3I+r7IBWvZ6eIhdAIMiGlNQ0Wg0Ywq4DhzXratmyLYsWrHK60/+97Nu3h0f7deLWrdxPQC1XriJt2rQnrG1HQpu1xMvL20ALoUOnZuzdq+pwewuDogBGXQG4oWLzB+wyccrfP4Du3QfQvfsAMjMz2LdvB1u2rGH79g0cO3Yg26uCWrUa8tFHE6hatbbhNpqBTIsb17yrEpJ4xP75ACmp4OEBLiIKIBDciyzLDH7rA102/8DAokz8aYZTb/4A9eo1ZOOGPbw+ahgbN67N8jPe3j60aN6aNm060KZNe8qWKW9XGzXsbar20txglAOgWq+9R066uLjSsGFzGjZszsiRH5OcnMjBg3s4fHgvly6dIzMzg5Ily9C0aRvq1Gns9D8otpLi4kekV3mCk9VPFVTHnVwAH2O9coHrNAcjAAAgAElEQVTA2Xjn6x+Yu2yVZj0Wi4VJP88kKChvXGWWLlWWhfNXcvTYYdatW8nFi+dJSU2hfLkKNGzQlCZNQnF3N2wvfShe6nPG3PS0416MjACoQmsSoFa8vHxo0qQVTZq0cqgdZiLeLQjPjAQC0q/bd+G0VPD0ABcX+64rEJiUn2cvYOzEabroeu3Vt2nZsq0uusxE9Wo1qV6tpqPNeACL+veYK8p1ve69542Kr6p2AFzEy96URHmVJdnVTtMB7yIDiY7oRyAQmI/lG/7mpTH69L1v9kgL3nrzfV10CXKHxaJpuzXksG6UA6DaWGcYsJMfkZG45lmZDIudQ2gZ6ZDmgCREgcBEbNmzj8defkvzhD+AIoUDmTRxljhs2RmLtqomp3IAVF+UW0UrWNOSaXHjqlc1rJKd2y4nJxkQ/BIInIPwI8fpOuRlkpK1t721WCz89NN0ihUroYNlAjtiyLx0o97kaWoFM8VEOFOT6uLDNa/KlEg6hnTPrpySlsaOQ8e4ciMKdzdXKpcOoXbF8vokTWZa7zQH8tSuSyBwIo6dOUfHZ4Zp7vF/l1Gvj6Ztmw666BLYhoa5BTL5xQFISkrQ0w6BASS5BhDhVZFiyaeIjrvFJ1N+Y/Kff5F43wmlVHAQbz/zBM/16oKLtvsvSE4Bd3dRFijIN5y5eJl2Tw0l+mbua9tzomePvrz5xnu66BLYTpL6dsUZGBQDNeptqnqua2KiqlaJAjtz2y2QLZdSaPDUUL77fdEDmz/ApYgbvDj2W7q99g7xiVp7dcuQZMxcB4HAbJw6f5FW/Yfo0uUPoE6d+kz4cWq+K2M2ExrmFRiWBGWUA5COSo9FZa9kgZ2JjLxGn6GDuXg98qGfXbl9N2HDXudmvMbvNj0DUlUHlwQCp+DE2Qu0GjCEq5E3dNFXrFgJZs/6I8/OLnEWktQfYFQfqB+GkfFUVf+1t2/rE+4SGMtnn40iKioi15/fc+wkbV58nSit4cykJLCKjEBB3uTo6bO0GjCE6zfU97W/Fy8vb2bP+sPm8bUC/YmOVv2dGrYpGukAxKoRunEj95uKwDFcvnye1asX2yx34NQZWg8dSUSMqkdDQZYhUeSJCPIeew8fo/WA54iMjtFFnyRJTPhxKrVr19NFn0A9mZmZxKofVmTYRDYjHQBVT3FyciLx8SIKYGY2b16lul/D0XMXaPn8q1y5oeFuU1wFCPIY67fvps0TzxMVq9+7/p23x9Cj+6O66ROoJzY2WkuFm4YTU86YLgIAyv2ywLxcvnxOk/ypS1do9uxLHD9/Ub2SpCSlPFAgcHIWrlxHl2df4naifkmuzz/3EiNfe0c3fQJtXI/Q1EY9/0QAAK5du6SnHQKdsVq192q4FHGD0CEvs/3QUXUKZBkSE0WDIIFT89Nv83n8lbdITdMvotWv35N89uk3uukTaOfcOU3D1PRJCMkCIx0A1cf4M2eO62mHQGeKFy+ti57Y+NuEDRvFn5u3qVOQkaE0CBIInIzMTCsjPx3H8A8+16W97106dujKD99NFuV+JkOjA2DYidhIB0B1nPjsWeEAmJnQ0Ha66UpOTaXPmx/wyx/LVSpIgXQxK0DgPCQmJdN72Ei+nfqbrnofadqcKZPn4upq51bdgody5qwmB+CCTmY8gJEOwHm1gqdPH9PTDoHOVKxYjWbN9Bsjmmm18sJn3/D6+J/JtHkWhAwJSSBmSAicgKuRN2jx+LMsXbdZV721atZh9m9LRK2/STl+7LAWcQ3JUjljygjA6dNHSU8XWd5mZvTob/Hz03c88DezF9B95Lu2dw2UrSIfQGB6tu7dT4MeA9h3VN8IZ6VKVVkwfwX+/nYe1y3IFcnJSRw7fkSLCqd0AC6g8pWcnJzE0aP79bVGoCvlylXmu+/m6n7iWLFtF00HDefsFRtTSNIzICVZV1sEAr2YMGsebZ54nogofWr871Ktag2WLllHkSJBuuoV6MfBQ/vJyFA9y+c2YFhzHCMdgCTgjFrh8PDtOpoiMIJmzdoyadISvLx8dNV77PxFGj8zjPV79tkmmJwCaSIfQGAeUlLTGPzWh4z4cCzp6jeBLKlVsw5LlqwjMLCornoF+rJ3704t4gcBw+43jR6tZuMb/F/27t2qpx0Cg2jSpBWTJy/F19dfV70xt+LpMOJNPpnyG1ZbWv8mJijVAQKBgzl57gJN+gxk2sI/ddddr15D/li8lsKFiuiuW6AvGzet1SJuaCjctA7Azp2bSBEhXaegQYNQZs5cTUBAYV31ZlqtvDdxKu1HvMGN2Fx2h5SBhASRFChwKDP/WE6DHk9w8Pgp3XU3bvQIixeuJiCgoO66BfqSmJjAju1btKhQvYfmBqMdgHC1gklJCWzfvkFPWwQGUr16PaZO/YvChQN1171+zz4aPfMie46dzJ2AVYYEkRQosD8JSUk8Peo9nh71HglJWkdgP0izZi1ZMH8Ffn76RtwExrBx41pS0zQN8zugly1ZYY8IgOqj2Jo1f+hoisBoqlevy9y5mwgJKau77ovXIwkd8hJfzJibuyuBjAxRGSCwK1v37qd258eYqbanxUPo2LEb8+Yuw8fH1xD9Av1Zttz2oWn3cAvQVD7wMOzRLmoX0EiNYIEChdi69QLu7h46myQwkujoSJ5/vodhlRwt69Vm5pi3KRWci8xnDw/w8TbEDoEAIDUtjQ/GT+TryTN07ep3L88+O4zPP/0WFxcXQ/QL9OfWrTiq1QjRcpW9BOilo0kPYHQEAGC1WsFbt2JZtWqRnrYI7ECRIkWZNWstTZu2NkT/5n0HqT1gCHNX5+KKKDVVtAsWGMaBYydp1OtJvpg0zZDNX5IkPvxgLF+O/V5s/k7GosW/a81jW6eXLdlhjycqHRisVjgqKoK+fQfpaI7AHri7e9ClSz8uX77AqVP6R7FS0tJYtOFvTl68TMt6tfDx8sz+w+kZ4OKi/BIIdCA5JZX3v/2JQW9+wPUoY2a1eLh7MHHiTJ5+6jlD9AuMZeSoF4mM1FTC/xoahurlBnu8Ea8BrwA5vKGzJyLiKq1bdyYoqLi+VgkMx8XFhXbteuDq6sauXfq2Pr3LkbPnmbZsFSWDAqlZoVz2H0xPF06AQBc27NhNl2dfYun6zVhlY5JMChYsxO+/L6ddWCdD9AuMZePGtfzw49daVFwA3tfHmuyxx9vQCtQAaqlVcPv2LTp27KOfRQK7IUkSDRuGUqlSDTZtWklGhv6NepJSUlm8cQvhx0/Rol4t/H2yaUyUlgGuwgkQqONGTCwjPhzL6599Q2zcLcPWKVumPH8sXkPt2vUMW0NgLCNeGsyVq5e1qPgFO1wB2GtmZHs05AJIksTChduoUaO+jiYJ7M2xYwd48cXeRERcNWyNAr4+fPTCIIb17YFrlhu9BH6+4CYmpglyR0ZmJj/9Np8Pxv9MXPxtQ9dqF9aJiT/PFDX+TszWrZvo0StMq5pagKYJQrnBXg6AC8pAgxJqFTRp0ooZM1T7EAKTEBUVwSuvDCA8fJuh69SqWI4f33iF5nVrPviXkgR+PuDqZqgNAudn865wXhrzBYdPahrn+lAsFgujXh/NG6NGY7HYIzdbYASZmZm0DWvE4SMHtag5CNTRyaQcsVcsVAaKAs3UKrhy5QK1azeidOkK+lklsDs+Pr706DGAxMTbHDy427B1ImNvMn35ak5fukrTWtXw876vFDAtXVwHCLLl5LkLPP/Ox/zvy++4ERNr6FoFCgQwdcrvPP3Uc0iSvc5kAiOYPGUCc+bO0KpmHGCXYTj2fNqqAke1rFm8eAhLl4brPoZW4BhWrlzIu+8OJTHR2LCqn7c3bwx8jJFP9P1vtYAE+PqCm4gECBQiomIY8/1EJs/7g4zMTMPXq1a1BjNnLKRsWXGwcXYiI6/T5JEaxMdryg9JAcoAkboY9RDsefyJBuoDldUquH07nujoSMLCuutnlcBhVKxYjXbterBr1yZiY40ppQJIS09nY/gBpi1bhZ+PN7Urlf83zJomqgMEcPNWPJ/9NIUnXnuH7fsOGpbdfy/9+j7BrJmLCQoKNnwtgbFYrVYGP/s4J04e06pqCjBPB5Nyhb3feueBIVoUHD9+kGrV6lCunGo/QmAiChYsQu/eA4mNjTasc+BdEpKSWb5lBwvX/02JwCJULh2CJAFpaWBxUa4EBPmKuPjbfP7zVPq/+jZrt+4kLd34cdL+/gUY/+0vvPXm+7i5uRu+nsB4vh3/OTNnTdaqJhN4AjD2zukeHHHhtAHQ1CKuQIFCzJu3mbJlK+lkksAMrFmzhNGjX+TWLfs8/3UqVeD9556iZ8tmyt2rlyd4edllbYFjiY27xQ8zf2f8tNmGZ/bfS5PGzfj55xmUCiljtzUFxrJt22Z69WlPpvYrowVAPx1MyjWOcADCAE0DkgFKlSrHvHl/U6iQ/tPnBI4jIuIqb745yLDGQVlRq2I53nt2IL1bt8Di7QneXjjmR0NgNBevXuebKbOYsmAJiUn2Gzfu5ubGm2+8xysvvyVa+uYhTp48RtfurYmN1dywTwYaomGCrhoc9ZZbAWhucVW3bhOmT1+Fp6c4teUlrFYrU6eO5/vvx5Caar8+/lXLlmbkgEd5skcXPAsVFD5AHmL/sROMmzyLectX2yW5717KlavIpJ9nUq9eQ7uuKzCWK1cu0alLC65du6KHuhnAM3oosgVHveIqoIw51DzmLzS0HT/+OA8vr2y6vwmclrNnT/DOO89z4MAuu64bVCiAYf16MWzwkwQWLmTXtQX6kZ6RwaJV6/lx5u9sCzd0rHqWWCwWBg0aygfvfSZG+OYxoqIi6dajLadPn9BDXTxKcrymwQFqcOQZ5yPgPT0U1anTmF9+WUKBAuJlndfIzMxk+vTv+f77MVona9mMl4cH/bt14IUBfWlUu4Zd1xao50pEJFPmL2HS3IVcv2FcdUlOVK1anW/HTaJhwyYOWV9gHOfPn6Fvvy6cv3BWL5WvA9/opcwWHOkAeKH0BSirh7IKFaoyZcpfBAerbjYoMDEXLpzm3XeHsnfvVoesX7daFZ7v34cnenTCL7tZAwKHkZqWxp9rNzFt4Z+s3bbTkNG8ucHDw5NRr7/DSyPewE30l8hzHDgQzmP9uxEdfUMvlcdQuv4ZX36SBY6+5WyNkhCoS1ZMkSJF+eKLqYSGau7DLDAhsizzxx+z+Oqrd4iNjXKIDb7e3vTt3I6BvbrQslF90bbVgciyzI79h5i7bBVzlq40dEBPbggNbcU3X/9E+fKiOikv8seS+bzy6vMkJibopTIVpTuuXRP/7sXRDgDAB8CHeimTJIlBg15h5MiPRY1tHuXWrVi++eZ95s+fgtXqmJMeQMngogzo3okne3amZuWKDrMjv7Hv6HF+X7aaeX+t5tI1u1+bPkDhQkX48MOx9H/8adHKNw+SmprCu6NfZ9r0SXqrfg0Yr7dSWzDD0+oCrAHa6Km0evW6fPnlNCpUqKqnWoGJOHRoD2PGvMKRIw5zoP+hWoVy9Gzfml7t21C/RlWxEehIZqaVrXv3s2zDZv5cu4kzFzWNWdUNd3d3nn/uJUa+9jYFCgQ42hyBAZw6dZznnn+CI0cP6a16GdADpfzPYZjlLRUMHEAZGKQb7u4eDB36Fs8//4aIBuRRZFlm2bK5fPPNe1y/rks5jmZCigXTo10rurVpQfOG9fDy1Fzsku+IibvF+m27+GvjFv7auIUYB4f376db19588MHnlC1T3tGmCAwgLS2N73/4km+++ZzUtFS91V9BuffX3DxAK2ZxAACaAusA74d90FYqVqzOmDE/UL++6mGEApOTkpLMtGnf8csvX5GUpNsdnWa8PD1o0ag+7UOb0L55U2pUEkNfsiI1LY0d+w+xdutO1mzZwb6jJxx6vZMdderU55OPx9G0SaijTREYxO49O3ht5AucOKG5r39WxAOtAGP7nucSMzkAoDQH+hMwJH22ffuejBr1qRgpnIe5cuUCjz3WXM8sXV0JDixMs/p1aN6wHs3q16FOtcq45sPOcLFxt9i+7yDbwg+wde8B9h4+SkpqmqPNyhYXFxe+/moCA598Vlzv5FFOnDjGZ2PfZ8WKP5GNGQaVirLHbTRCuRrM+CQPAGYBhqRXu7i40KpVZx5//DlCQ9uJLO48xPbtG/jwwxFcvKhbfa7h+Hp706h2DerV+H975x0eVdHF4Xezm94hIQmE3nuXKkpRFAGlSa/ip4iKCir6CSKiSFFAREEBQao0gygCAkoHQZCO9J6QSgrpu/v9sRb0o+Xe2dy7d+d9nvsEws6ZH9nszJmZM+dUoX6NatSrXoWKZUoZapJJTc9g/9Hj/Hr4uOPrkeOcOn/RWYOs0yhfvhJTPppJs6YttJYiEYTNZmPr1s18tWA2a75b5cxdJyvQA1jhrA6UoNdR5gXgY2d3Eh1dhi5d+tOhQ09KlhSSjkCiAcnJCXzwweusXr1IaylCCArwp1aVSlStUJbKZctQrWI5KpcrTZkSxXXtsCYkp3D6wiWOnjzDibPn/vh6ngtXYl1usr8dJpOJvn2eYszbH8jAPxfm4qXzLFu2kEWL5nHx0nlnd2cHngNmOrujgqJXBwDgGWAGhVCy2GQyUadOYzp27EG7dt0ICSnq7C4lgli9ehHjx79GSoo2Gd8KE28vL0oVj6RU8UhKlyhO6RJRlIkuTlhoCMWKFiEirAhhoaHCgw5tNhsJySnEJyUTG5/ItcRk4pOSuRQbx7nLVzh36SrnLl0hIzNTaL96JiIiig/GT6Vjhy5aS5HcI8nJSaz+dgUrVixmzy87C8spzccxl80tjM4Kip4dAICOwBKcEBh4OywWT1q0eJgnnuhLmzYdZeUunZKSksjo0UPZsCFGaym6I8DPj6BAf/x9fQkK8CcoIAB/P9//cwxMJtNfg6DVaiMtwxE8mX4jk7SMDNLSb5CanuFWE3tB6dK5B5MmfiJ3A3SK1Wpl7Q+rWfr1AjZvXk9ubqHGmWTiKO/7fWF2WhD07gCA43bAGqDQl+WlSpVj3LiZNGr0QGF3LbkDW7eu5403niYx8ZrWUiQSoqNLMWP6XJo3f1BrKZKb2Lp1My+/8iznL5zVovtEoAOwW4vO7xVXWN5eBtYDzxZ2x6mpKaxevYjo6DJUqVKrsLuX/IusrEzee28448e/qqurfhL3Ji0tlWXLF5KZeYMmTe/HYrZoLcntWbJ0PgMHdSflerJWEpqiYYrfe8UVdgAAOgGrtOrcYvFkxYodVK1aWysJbs/p08d58cUenDkjpPymROIUataozZdzv6ZsWXnVWCsOHTrAQ22bkJ+fr6WMToDuzyf1G1L8T57UsvP8/DwmT35TSwluzZo1S+jatVmhTf5t6tVm0n/607iqLOoiKRiHjxykVZtGfP+97sd+wzJm7EitJ3/QeM66V1xhB8APiAc0rcFqMpnYvv0CYWFCsxVL7kBOTjbvvz+CpUu/KJT+Hqxdg3f69aBZjSp/fe/UlVgWbdrCok1bORenz+RCEv1hMpkY+twrjHrrPSwWeSRQWMTGXqFm7TJ6uHaajiO1fZbWQu6EKzgAnYGVWosAmDnzG1q2bKe1DLfg6tWLPP/8kxw96vyMmfUqlmPC4L60rFPztq+x2+3sOHqCRZu2ErNjDwmpaU7XJXEOoaXK4RsUwtUj+53eV5PGzZkzewkREVFO70sCP/zwLX36ddZaxp88gSOzrW5xhSMA3cy4qamaBZS4FQcO7KJr16ZOn/xLhocx77UX2D19wh0nf3Cs6JrXqMpnw57h8tLZ/DR5LMM6tad0sXCnapSIp0H3wTwbs5fOk+YRFFnCqX3t2r2d1g815tAhXaR+NzzJKZrX17kZ3cxdt0PvOwAm4BLg3E/pPTJjxnLatOmotQxDExOzkFGjniNXfAWuv/D19uL17p0Z3rUjvt7qq0TuP3WWmB17+GHvAQ6eOYdN++1HwxJRJJS0G5lk5Sj7/TCZTLyy9RwhJUoDkJeVyfbPJ7Ft1gTysp23W+vn58/MT+fz2GNPOK0PCaz5bhUDBurm+P0SUEprEXdC7w5AHXRSNQlg06bfiY4uo7UMQ2K32/nkk3F88sk4p/bzWKP6TH3uKcpGFnOK/cTUdH4+eIRNBw6xft8BLsYbP0OhM/Hz8aZprRq0ua8ebe6rT3hoCOUe74VVYc720g3vZ/DXW//v+ykXz/LdmBc4+fNatZJvi8lk4tURo3j9tdFO68PdOXv2FA0bVdVaxs3UAg5rLeJ26D06pbXShmazmYCAYGHb9lWr1paTv5PIzs5ixIj+/Pij847LShcLZ+pzg+jQpKHT+gAICw6ka4smdG3RBIBjFy+z+cAhdh8/yY4jJ7iUIB2COxHk70fjmtVoUrM6D9avTZOa1fH2+rs46Nuz5ime/AFqd+x1y++HlipH37nfc2z9N3z/zoukxV1W3MftsNvtTJw0louXzjP1o1l4ejql6KlbU65cRapVrcGx40eE2AsNLUJ6epqaWwWt0bEDoPcdgBjgcSUN69Ztwvz569iwIYbly+fyyy9bVUWGfvzxEtq21U1wiWFIS7vOkCFd2Ldvu1Psm0wm/tPuIT54ui+Bvr5O6aMgXE5MYufRE+w69ju7jp3k8LkL5OTlaS1LEzw8TFSILkHjmtVoWqs6TWtVp1q5MphvU/DIarNRtmMvLl1TdhvD7OnFa7uv4hd656Si2emprB//Kr9+Pdtp0eStW7Vl3pfL8PPT9HKTIfkmZhmDn761o3cvmEwmmjZtQb++g+nQvhNPdHqIX/buUmpuFaDbghF6dgBMQAIKUwAPGzaG555746+/X7hwmmXL5hITs6DAteI7duzFpElfKpEhuQPx8bE89VR7Tp4U463/m7KRxfj85SF3DfDTknyrlZOXr3Lw7HkOnb3Ab2fOcfjsBeJSrmstTShB/n7UrFCOWhXLUadSBWpXLE+N8mXx9/W5Zxvfb99N+5eV5+Oo0roDvb/49p5ff2bHRmLeeJrrl88r7vNONGjQiKWL1xAaWsQp9t2Z/zzTh5WrlhaoTXh4BD179KNP74GUL/93DpDJH45j/AdjlEqJByJxVATUHXp2AKoDimeGlSt3UqNG/f/7fn5+Hlu3rmft2hVs3vwdN26k39FOly4DeOed6Xh6qg8Wk/zNuXMnGTToMa5evegU+4Meac1Hzw4koAATjJ5ISkvnzNU4Tl+N4/SVWE5dieX01VjOxl4jKe3Ov7Na4e/rQ/no4lSILkGFkiWoWNLxtULJEkQLuC3R6dXRxPysfKfoyY+XUrN99wK1ybmRzvdjXuDAyvmK+70TlStXY8WytRQvHu0U++5Kbm4urwwfwpKld37fAgICeaRte554vButWz+Cl9f/j/MHDuyjzcON1cipCugyhameHYD+wDwlDYsWDWf79ot3rZ2ek5PN1q3r2bRpDbt2bSYu7goAvr7+NGnSkgEDXpSFgJzAiROHGDiwHcnJCcJtFw0KZOZLz9KpWSPhtvWAycebHLOF2MRkriYkcjUxidjEJK4mJBGffJ3UjAxSb9wgNeMGKWnppGbc4Hp6hqJz85DAAEICAggO8Cck8O+voYGBlCgWRlRYEUqEhxNZNJToiHAC/ZxXtDM2MYlS7XuQb7Uqau/tH8jrv8Th6atM45Hvl/HtW8+SlZqiqP2diI4uxaoV6/6x6pSIYevWzcz6/GO2bvuJzMwbABQvHk2LFq1o90hHWrdui4/PnY8GbTYbVaoWJylZcfxOH2CR0sbORM8OwEfAy0oatm3biY8/Ltj2D0BaWgp5efkUKRKGyaTnH43rcvz4QQYMeJTr18Xf132wdg3mv/YiJcKMu6XqERSESWFmubz8fDIy/77qlpGVRV6+lZDAgL8GAn9fX7w89RcbPH7eYt6cMVtx+zqd+9FlsrpVfGrsJZa90IOL+3eqsnMrIiOL823MRukEOAm73U5SUgIWiychIaEFbt9vQFc16Z0nA68qbexM9JwIqI7ihnWUbdcEBYVStGi4nPydxNGjB+jf/xHhk7/JZOKNnp1Z/8FoQ0/+eHgonvwBPC0WQoMC/3pKRhSjXIkoitz0PT1O/na7ndkx6kqq1+nUV7WO4KiSDFryEw17iy9MGhd3lY5PtOHMmZPCbUscY0RYWDFFkz9AwwaqjgAUz2XORs8OgOLSe3XrGnP715U5enQ/AwY8KjybYmiAPzHvjOTdAb1uGz1uFExe3lpL0IRNe/dz9kqs4vahpcpRrkkrIVrMnl50fPczOk2Yg8VbbHzJn07A6dO/C7UrUU/Dhk3UNNdtGVm9jphF/ngKjKenF9Wr1xMsR6KGP7f909LEnp/WKFuKPZ9M5LFG/x/saURMArIWuiKzY9Ql52nQfTAmwc5hvW6DGPz1VoKjSgq1K3cC9EndOvXV5G0IB4IFyhGGXh2A8koblilTES83XSnpkQsXTjN4cHvS0sRea+vYpCHbp7xPuSj3qM5oMpsxmc1ayyh0Eq+nErNFeeS/2eJJva4DBSr6mxK1GjLk232UbfygULvXrsXSuesjXL0qPhmRRBne3j6UL19RjYlyorSIxHAOQIUKukoD6dbExV1h4MB2Bc67cDde796JFW+/5rJX/BRxi+tJ7sCsVWvIyVWeKKly6w4EhEcKVPRP/IsWY8CCH2ky4EWhdi9fvkiXbo+qiTyXCKZihSp3f9HtkQ5AASittGH58qreJIkgUlISeeqpx7hy5YIwmxazmTnDh/LeoN54uFmgpsnL/dLG5uTmMWO5uvTQDXv+R5Ca2+NhttBu9DTavjFJaADxyZPH6dGzAzduZAizKVFOpUqqFpdlBMkQil4dAMWVWsqWlddotCYr6wZPP/04p08fF2bT38ebb8a8Tv+HWwqz6TJ4mDCZ9Red72yWbNhEbKLyGyMh0WUo3/whgYruTPOnR9Bp4pd4CHyv9u/fS9/+XchxYnVMyb1RocFn70QAACAASURBVIKquUWXdcP16gAo/mFFRBQXqUNSQGw2GyNGDODw4X3CbBYJDGDd+NE8ep97Bnea3HT7f+rilaraOyP4727U7dKfXrO+UZxw6FZs2bKJoUMHOq0ugeTeiIpUNbeEidIhEr06AIry/wOEhblHUJhemThxJBs33nu+9bsRHVaUbVPfp0m1ysJsuhomN0xD/eOeXzl46ozi9h5mi9OC/+5G5Vbt6T9/PT5BIcJsfhOzjA8/ek+YPUnBKVZM1dwidwAKgOIrE9IB0I6lS7/gyy+nCbNXLiqCnz58l8rRbryrYzJh0mFyHmfz0aLlqtpXbt2eQA13A0s3aM7gr7cK1fDBhHf4JmaZMHuSghEREaWmubwGWAAURTyZTCYCA3X5czY8O3ZsYuzYl4TZq1KyBD9NfpeykYrDQQyBI/OfewU8Hj17nvW796qy0ajvUEFqlBNRuSZPL9tOcPFSQuzZ7Xaef+Epfv31FyH2JAUjKEjV3KLLKF69OgCK9jxlxT5tuHjxLC+91BurNV+IvcrRxdk46R1jp/W9R9zx/H/K4hWqzrsjq9SiXNPWAhUpJ7RkWQYu3EhgMVWrx7/Izs6id99OMkeABnh4eGBRnopblx9kvToAirwl6QAUPllZmTz//JPCsvyVj4pkw4QxRIaKOz91ZUzKs4+5JPHJ11n0w0ZVNpoOellX9TyKlqlI/6824BcqJg4sIeEaA5/qTm5urhB7knvHYlH8edTlB1mvDoCipaTZDTOlac2oUc/x+++HhdgqXSycDRPfliv/PzGbweD1Df7NpytWk61iYgsIj6Rmx54CFYkholIN+s9fh4+gI8p9+/bw1ugRQmxJ7p27lZi/A2K2RwWj19HlhqJGMmFGofLVVzNYs2aJEFsRoSGsn/A2pYvpMlhWE0zKVxsuSWZ2Dp+uUJf4p1Gf57DoNBV48Rr16Tv3e7z8/IXYmzPnU5Yt12WZeUNis9nIyspU2lxxQ2eiVwdA0Q/Las1X8wZJCsCBA7uYMOF1IbYCfX35btybVCjuvJStroi7Rf/PWB5DQorymhGePr7c12eIQEXiKVW/Gb0/Xy2skuArw4dw9JiYHTjJncnISFcTm6LLiUmvDoDipXxGRppIHZJbkJZ2nVde6Ud+vvIc7X/iZbGw4u1XqVtBl6myNcWdHICMzCwmLfhalY3anfoKO2d3JuWatqb79K/xEHBkmZWVyVODe5KZqWjTVFIAUlNVFTTT5RukVwfgmtKGInPPS27N228/z9WrF1XbMZlMzB3xPK3r1hKgyliYzBYw6fXjKZ7py75Rtfo3mUw0HSjuGqqzqdKmIw+/PkGIrVOnTvDWKBkP4GwuXVY15sWJ0iESvY4wV5Q2vHTpnEgdkn+xcuV81q5Vl6TlT0b16UaPls2F2DIcbrb6n7J4hSoblR5sR7iLVQJtNng4DQQVK5r/1RfErBbzuZTcmnPnTqtprst7m4ZzAC5cUPUmSe7AhQunGTfuFSG2uj/YjFG9uwmxZURMyu8buxxTFq9QtfoHaDpYzO9lYdN+zHRKN7xfiK1XX3ue2FjFQ6fkLpw7d1ZNc12+MXp1ABTvtYgsQiP5G6vVyogRA8jMVH/T4r4qFZn9ylBd3dXWFSb3uf+fmnGDKUvUrf5L1W9GuSatBCkqXMyeXvT8bCWhJcuqtpWcnMSQoQOw2WwClEn+zW8HVc0tujyb1qsDoDisdf/+3fID4ATmzp3CoUPq0rOC47rfslEj8PWWSZtuh8nDDG7iHE1ZvIKUtHRVNlq+OFqQGm3wLxJO3znfC8kRsG3bT3w5b5YAVZKbsdlsalMwHxGlRSR6dQCuAfFKGqalpXDmjLg69BI4d+4k06e/q9qOxWxmyZuvEB2muNije+Am2//JaelMVbn6L1m3MRXuf1iQIu0Ir1CVrlMXCSlfPPbdN7l0SZcLTpfl6LHDpKWlKm1+FUgSKEcYenUAQMUuwKZN34nU4dbYbDb++99nycnJVm1rwtN9aVGrmgBVxsZkcY+Mlh8tWk5qhrrbUS1ffFuQGu2p3PIxWgx5Q7WdjIx0Xhg2WFU9Bck/WbtWVYKqQ6J0iEbPDsAepQ03bPhGpA63ZsGCGfz66w7Vdjo3b8ywTu0FKHID3CCldULKdT5eukqVjeja91HxgUcEKdIHrV4aQ8l6TVTb2bbtJxYvmadekASANd+tVNNct+Ub9ewA/KS04dGjBzh37qRILW7J1auXmDJF/QqrdLFwZr2s7wxtusH0Rw4AgzN61pekZ6pLjvbgC6MEqdEPHmYLT05dLCQeYNToV7l2LVaAKvfm6LHDHD9+VI0JxXOZs9GzA7ATyFHaeOHCTwVKcU/Gjx9BVpa6LVqL2cyCkcMIDRCT/9zwuEEA4NGz55kds1aVjajqdanU8jFBivRFSHQZnvhgtmo7qanXGfPOSAGK3JvPP5+upnk2sFuQFOHo2QHIRMUPbtWqBaSnKw7acHu2b/+RDRtiVNt5q3c3mlavIkCRe+AOq/9hkz8h32pVZaPli28b+hpp9Ue7Uq/bINV2lq9YzM5d2wQock+Sk5NYsVJVwbPtOJwAXaJnBwBA8SFhZmYGc+dOFanFbcjNzeHdd19WbaduhXKM7NFJgCL3wWTw8//VW3awae9+VTaiqtelSpuOghTpl8fe/piwcpVV2bDb7bz++gvk5+uyGq3umf7JZLKzs9SYUBfo4mT07gAsBxRf6v/yy2nEx8szsIIyd+5Uzp8/pcqGp8XMnOHPYTH4hCYcA98AyM3LZ8S0marttH19gqFX/3/i5efPk9OWYPZUlzPj2PEjzJ4zQ5Aq9+HSpQvMUrf9bwVURQ86G707ALHAVqWNs7JuMHnyfwXKMT7x8bHMnKm+SMlrT3aiVrky6gW5GUbeAZi2dCWnL6nLiFrxgUco3/whQYr0T1T1utz/zGuq7UyYOJaEBMU11tyS0W+/pvb6888ozGdTWOjdAQCYp6bx6tWL2LxZ5gW4Vz7+eKzqwL9qpaJ5s1cXQYrcCJMJBCSC0SPxydd5b+5CVTY8zGbajpwoSJHr8MDQ/xJWtpIqG2lpqUyaPE6QIuMTs3o5365RvXifJ0CKU3GF0WYpKr2oUaOeIykpQZAc43Lq1DFWrZqvyobZw4PZw4fi7Sa57EVi5ADAtz6bozrpT53O/YmoXFOQItfB4u1Dx3EzVR97fLVgNmfOyOvRdyMu7iqvvva8ajPAMgFynIorOAA5gKrk1omJ1xg6tBu5uYpvFboFkya9gVVldPawTu25r0pFQYrcDLMrfBwLzsFTZ5j77Q+qbHj6+NLqpTFiBLkgZZu0pE6X/qps5OXl8e64twQpMiY5Odn0G9CV5GTVmXs/A3IFSHIqrjLifIbKqxQHDuzinXeGCZJjPPbs2cKWLetU2ahQPJIx/bsLUuR+mDyMd/5vs9kZOmEaVpUFupo9PYLgqJKCVLkmj7wxGf8i4apsfPf9N+zdq9tr6Zpit9sZ9tJ/1Bb9AccVdpeoyOQqI04GEAI0VWPk2LHfyMq6QbNmbcSoMhAvv9yHa9euqrKxYOQwqpaKFqTI/TD5eBsuCPCTZTF8/o26GJyAsAienL4Ui5e3IFWuiaevHwHhkRxXmer89Onf6d1roCBVxsButzPyzZdYuHCuCHMfAaqKBxQWrrIDAPABoDqzz5w5U/jwQ7kNdjNbt65XXeq3feMGtG1QV5AiN8VgRwAXYq/x5qfqM9q1GjYGb/9AAYpcnzqd+lJe5QJm954dbNmySZAi18dut/PWqBHMni3kqmQKoP4aVSHhSiNOEoJ+sJ9/Pok333yG/Pw8EeZcnhkz3lPV3tvTk8nPDBAjxo0x2hHAM+M/IiNTVRIVilWsRv0egwUpMgaPjpqCh8qdoomTxgpS49rk5OYw5Ln+zJw1TZTJD3A4AS6BKzkA4NhaOSbC0MqV83j66Y5cv67LMs2FxvbtG/ntN8WFFwF4qXN7KhSPFKTITTGZDFUDYP5361m/S92ukslkov07M/Aw8O0IJURUqkGdTv1U2di9Zwfbtum2Rk2hkJgYT5cubVm+YrEok0cAl0o/62oOQA4wCEeGJdXs3LmZxx9vyL5920WYc0k++2y8qvZhwYG83qOzIDVujIHu/8clJfPKFPXFuGp36kvZxg+qF2RAWr/yLp6+fqpsTPrQffMCbN/+Mw+0bMCu3cLGfhvwDC4Q+X8zrjjq7AGE5bWMi7tCv35tmTZtjNqsTy7Hnj1bVDs/b/TsQpCfryBF7ovJQA7AC5Omk5yWrsqGb3CoWyb9uVeCIkvQuJ+6u+o7dmxxu0JBWVmZvDP2DTp1eZi4OHVBz/9iGo4Kti6Fq446I4GDooxZrfl8+ul4OnZswC+/KM487HLMmfORqvZlIorxbPu2gtS4OQbZ/l/10zZWbNqi2k6bEe8REBYhQJFxuf/ZkfiGFFFlY/r0SYLU6J9Nm9fTrHltPp4+CZvKa6n/4gDgkjnnXdUByAK6ANdFGj1//hR9+z7E0KHdOHPmhEjTuuPMmRNs3bpelY0x/bvLjH+iMLnqR/FvUtLSeX7ix6rtRNe+j4Y9nxGgyNj4BofSYsgbqmz8uPEHTp0y9lh39Nhhuvdoz5PdH+PCxXOizacAXXHMSS6HK486Z4B+gF204Y0bv6VDh/q8+eYznDtnzNSZ8+dPx25X/qOrHF2cni3vF6jIvTF5uP4OwAuTphObqC6o1sNspsO7nxnqSMSZNO73PMHFSylub7fbmTlLvdOmR44fP8qQ5/rzYMv6bNykLsnZbbDjmIPOOsN4YeDqn7I1wHBnGLZa81m5ch7t2tXm+eef5NdfdzijG01ITk5g9epFqmy80asLZjlIi8PFHYDF6zaxaN1G1Xbu6/McxWvUE6DIPbB4+9DyhVGqbCz9egFJyYmCFGmL3W5n+/af6dmrI/c/UIdlyxeJ3u6/mVcAl640Z4QRfArwjrOM22w2fvxxNb16taJ9+7p89dUMUlOTndVdobB06RdkZyvfsapYIkqu/kXjwjEAF2Kv8dwE9befAotF0fqVdwUoci9qd+pLYLEoxe2zs7OYN88lMtfelsSkBD6Z8SGNmlTn8U5t2PDjWlU7nPfAGFzsyt+tcN1R5/+ZChRKsn9PTy+aNWvNo492pXXrDgQGBhdGt0KwWvN58MEKxMfHKrYxZ/hQ+j/cUqAqiUdAACYvL61lFBirzUbLZ19m24HDqm31+HQF1R+RZaSVsG3mBDZMHKm4fWRkcQ4eOIvF4jo5F1JSkvl+bQwxq5ezbdtP5OfnF1bXU3Cs/l0eIzkAJmA6MLQwO7VYPGnQoBktWjzCAw88QoUKVQuz+wKzefN3DBmifJAtEVaEU/M/xcuFBgpXwCMwEJMLBlS+O3sBo2d9qdpOrY696DZV3bGUO5Oddp3JzUqRc0P59csF81fSrt3jAlWJxW63c+z4ETZu/IGNG3/gl727CnPS/5OPgZdwQuyZFhjJAfiTYTgyBmpyvBEQEEStWg2oV68p1avXo0GDZgQFhWgh5ZY888wT/Pyz8tKs45/qw6tPPiFQkQTAIzgIk4tlvNuy/yCthwxXXekvMKI4L/xwWPWVNndn3fsj2DH7Q8XtH2rzKEuXrBGoSB03bmRw+MhB9uzZwZ49O9i3b4+WsQp2YCyOrX/DYEQHAKAHMA/QvHyY2WyhUqXq1KnTmIoVq1G6dAXKlq1IVFRJPAo5iC429jKtW1fCalWWSDHQ15dzC2cSEuAvWJnEHBwMLlQJ8FpyCnV7/0d11L/JZKLPnO+p9OCjgpS5L6mxl5jyQHmsCmuceHh4sH/fKUqWLC1Y2Z2xWq1cunyBs2dPc+bMSY4dO8K+fbv5/eRxxWOVYLJxRPsv11qIaFxryXHvLAUu//G1hJZCrNZ8jh8/yPHj/8xb5OXl/ZczULp0BaKjyxAeHkmRImEUKRJOeHgkfn4BQrWsXDlP1Qdq4COt5OTvLFzIFbfZ7PR+6z3Vkz9A/R5Py8lfEMFRJanZsSe/rfpKUXubzcaChXN58w2xMdUZGelcuxZLYlIiSYkJxF2L5eLF85w5e4rTp09y/vwZcnN1m0H3Mo4FpXGugd2ECw07iggD5gIdtBaiBB8fX4oUCSM8PAp//wACA4Px8DATFBSCh4eZgIBAPD097+ooZGVlkpubQ0zMQhIS4hRpMZlMHJ09jUrRxRW1l9wZc3CIy5QDfnvWPMbOVjbJ3ExoybIMXXtQlvoVyLXfDzOjXW3FEfDh4RH06tkfi8UTf/87O/vp6enYbFZSU69js9lITb2O1WYlPT2NtLRU4uOvkZiY4Mop1mOAwTgq0RoSozsA4Pg/vgBMRAdHAq5Km3q1WTde3X1jye0xh4S4REGg1Vt20Pm10dhs6mKgTB4eDFq0mTKNHhCkTPInc3u15Nzun7WW4cpk48gvo76ilc7R/4ijHjuOyM16gPok5W7Ks+0f1lqCRGOOn7tAv7fHq578AZoMGCYnfydRr+tArSW4MpuBurjB5A/u4QD8yTGgJdAXuKaxFpciOqwo7Rs30FqGREOup2fwxIhRpN3IVG2rWMXqtBnxngBVkltR/dGueAcEaS3D1YgFegGtAWMXR7gJd3IAwLEbsBCogiOZg8seThUmfR96AIsLRai7Jvq9Vmy12eg96j1OXrys2paXnz/dP1mGp48sIe0sPH39qNm+u9YyXIUs4EMcc8ISjbUUOu7mAPzJdRyZnEoDE5COwB3p3Vpu1TobJ6ctVcUrUz5l7Y49Qmx1GPspxSpWE2JLcnvkMcBdyQU+ByoAI4A0beVog7s6AH8SD4wEKuE487mhrRz90ahqJaqU1PQmpXtg12c87ozlMXy8dJUQWw16PE2dzv2E2JLcmZL1mhCu86ykGpGOIyasLPAMcFVbOdri7g7An1zCkUK4BI6dgdPaytEP/R56UGsJ7oEOdwB+2PkLL304Q4itqGp1eOxtY5ad1StyF+Af/A68CETjyBbr1hP/n+hz2aE9HkBbYACOHAJueWDpaTFzafFswoLlPW1no7daAAdPnaHF08OEBP15BwQx5Nt9FC1TUYAyyb2SkRDHpKYlsVkLPV++XsgEvsWRFXYDeg600Qi5A3BrbMAPQHcgAugPrAPc6pPUsk5NOfkXFnan1SwvMGevxPLoiyOFTP4AT3wwW07+GhAQHkm5pq20llHY5ANrcdz2igB6AuuRk/8tkQ7A3UkHvgIexfEL9SSO4BFlKfVciG4tmmotwX0QcLdeBAkp12k3bKSQNL8ATQa8SI123YTYkhScKm06ai2hMEjCkaf/GaAk8BiO214ZWopyBeQRgHLMQCMc90abA00Bscn7NcTTYubK0jkUCTTMf0nXmHx98fDV9qQpPTOTls++wq/HTwqxV7JuY55augWzp5cQe5KCkxp7iQ+bl9b1LRMFpAM7ceTn/xHYC+iiapCrYdRiQIWBFccv4c4//m4B6uBwBurjyCZVGRf9GbeoWV1O/oWJxjsAWTk5PD78LWGTf0iJ0vSaFSMnf40JjipJVPV6XD3yq9ZSlJKPIzHPAWAfsB04iJzwheCSk5NOycfxC7rvpu/5AjVxOAaVcDgElYEygH4ivm7BY43qay3BvdAwBiAnN4/Or77NT/t+E2LPOyCIPrPXEBAWIcSeRB1VH3rcFRyAPOAccBJHxP7vwG/AYWSeFqchjwC0wROHE1Dyj6fUH1+jgNB/PT5aCDzx5SdUKB6pRdduiclswSO48NO35uXn023kO6zeIqbaqYfZTO8vvqXSg+2E2JOoJ+7EIWa0q61V99lACo7kayl/PFdwlNm98MfXi3/8OU8jjW6L3AHQhjzg1B/P3fDl9k6BH/+scOgF/FnDsyeg6FNfpWQJOfkXMnYNdgDyrVb6jHpf2OQP8Mh/P5KTv86IrFKL0JJlSbl0TqmJw8CiP/6cCeTc9G/5OM7k4e/J/uYnS2mnEucjHQD9k/XHU9DEFX2UdvjoffWUNpUoxWZzJAMyFc6mXF5+Pr3eeo8Vm8QVyGzUdyhNBrwozJ5EHFXadGTXl9OUNjfjSJkuMRjyGqAxCQYUJ1xvVaemQCmSe8ZWOLsAObl5dHntbaGTf4UWbWk3eqowexKxqNyVqQKECJIi0RHSATAmjVH43lrMZprXlDnEtcBeCA5AVk4OHYf/lzXbdgmzGV6hKt0/XoqHWW4o6pVS9ZuqeX88cFx5lhgM6QAYk8ZKGzaqWpFAje+juy1OTtmamnGDR18cyYbd++7+4nskOKok/eetwydILhD1jJdfAFHV6qgx0USUFol+kA6AMVH8YW1VW27/a4U933k7ALGJSTzwn5fYsv+gMJsBYREMWLiR4OKlhNmUOI/SDZuraa54USHRL9IBMB4m4D6ljZvVqCJQiqRAWJ2T2+Tc1Vge+M/LHDx1RphNn8Bg+n35A2FlKwmzKXEupRver6a54mNFiX6Rb6jxqIbjqmCBMXt4cF8VOaBrhd0JDsDeY7/TeOBQTl26LMymt38g/eevJ6p6XWE2Jc6ndIPmmJTfMgkGZHCQwZAOgPFQXMGneplSBPnJ83/tsGMXGAew6qdtPPjMS8QnXxdm09PHl96frya6jowJczX8ixZTW5VRHgMYDOkAGI+GShs2qSpX/5qTJ2YXYML8JXQbOYbM7Jy7v/geMVs86T5jOWWbtBRmU1K4lL6vhZrmio8WJfpEOgDGQ/H9/waVK4jUIVGA2h2A3Lx8Bo+bzMhPvsAmsMCQh9lMl48WULnlY8JsSgqf0vWbqWmueGyR6BN5cdd4KI7iq1u+rEgdEgXY85Q7ALGJSXR9fQw7Dx0VqMgx+T/xwRxqtu8u1K6k8ImsqqomgIwBMBhyB8BYFAOKKmnoZbFQrUxJwXIkBcZmVZQRcOeho9Tv+6zwyd/s6UW3aUuo26W/ULsSbQivUBUPs1lp86JAuEA5Eo2RDoCxULz6r1o6Gi+L3BDSA/b8ghVFm7lyDS2ffZnYxCShOjx9/ejzxbfUaNdNqF2Jdli8fQgtWU6NCbkLYCCkA2AsFDsAtcuVEShDogZ77r0dA6RnZtLrrXEM+WAKuSqODm6FT2Aw/eevp0KLtkLtSrQnonINNc1lohADIZd8xkKxd165ZAmROgqd3Px8dhw5ztnYeLLzcildLJz7a1Yj2N9Pa2kF5l52APafOEX3N8dy+tIV4f37Fwmn37x1FK8hq0Jmp13n/C9bSb16EYu3D0VKladUw+aYLZ5aS1NMsYrVObb+G6XN5Q6AgZAOgLFQ7J1Xji4uUkehkZ2bx4crVjN15RpSMm7849+8LBZ6tbqfsQN6UrxoEY0UKsBmw261YrrFWa3dbmf619/w2vRZ5OQW7KjgXgiKjGbAVxsIr+De43xa3BU2fvhfDq1ejPVfDplvSBGaDR5Os8HDsXh5a6RQOcUqVlfTXO4AGIjCKT4uKSzOAWWUNDz8xVSqlooWq8bJJKSm8fjo8fxy4tQdXxcZGkLM2JE0qOQ61xw9/Pww+fj843tXE5IY9O5E1u/a65Q+i5Qqz8CFGwmJLuMU+67C5d/2sPDpjtxIir/j60rVa0rvL1bjFxpWSMrEcO33w3zyaC2lzS+gcIyR6A8ZA2AcfAFFVVksZjPli0cKluNccvPz6Txmwl0nf4C4lOt0eOt9LsQnFIIyMdhzcv/x92Ubf6Zmj0FOm/yja9/H08u3u/3kn3LpHAuean/XyR/g4v6dLBnS5f92CPROWLnKao4wSuIYayQGQDoAxiEKhe9ndFhRl7sBMOu7Dew69vs9vz4hNY0RM+c5T5Bg7NZ8sFpJvJ5Kr7fG0f2NsSSnpTulr5odejBoyc8EhLuWE+gMfhj3Mpkpiff8+vO/bOXXpV84UZF4zJ5eahw9D8A1zwsl/4d0AIyD4tG7VIRrbWECTFv1XYHbxOz8hfPX7r6y0wuL1v5ItScHsmT9ZqfYN5lMtHrpHbpNXYynj1zUpVw8y/EfVxe43Y45U5ygxrkERqiaw6WnaBCkA2AcFH8oSxdzrdwexy9eVjSR2+121u/7zQmKxHIpIZGOo8bTZ+xEElLEFfK5GU9fP56c/jUtXxytpkKcoTi1dZ2idskXTpN0/u5HUXoiqJh0ACTyFoCRiFLasHSEazkAF1Wc5V+I0+8OQF6+lY9jvmfcwuWkZ2U5rZ/AiOL0/nw1JWo2cFofrkjK5fOK216/fF5tpb1CReUOgOKxRqIvpANgHBR75dHhrnUEkJ6ZrbytEydWNfz022GGzZjDsYuXndpP8Rr16f35aoIiXTvvgzPIvZGhuG12RppAJc4nsJiqOVzuABgE6QAYB8UfyoiQYJE6JAXgQnwCI79YwPKtO53eV8323ek0YS6evq6XHEkiFrkDIAHpABgJxR/KiNAQkTok90BGVjYfrfiWSctjyPrXlT/ReJgttBk+jvuffd2p/UhcBxkDIAHpABgJxR/KosGBInVI7kBufj4z16znvcUrSHLStb6bCSlRmh4zllOiVkOn9yVxHeQOgASkA2AkFDsAxeQRgNPJt1r56sefeX/xykK7ililTUc6T/wS3xAXSoMsKRQC1e0ARIjSIdEW6QAYhyAljTwtZgJ95R1wZ2Gz21m1bTej5i3m1JXYQunT4u3Dw699QOMBL8orfpJb4uXnj8XLm/zcHCXNA0TrkWiDdACMg6KqJHLydw45eXks3LiVD1es5uTlq4XWb1S1OnSbutjti/lI7o53QBD5yYqu1MpBwyBIB8AYeABeShpKB0As6VlZfP79j0xb9R1Xk5ILrV8Ps5mmg16m9fBxLlmhTlL4ePkHcEOZA+AJmAGrWEWSwkY6AMbA5+4vuTUBftIBEMGF+AQ++3Yds3/YyPV/lSV2NmHlKtNp4lxK1WtaqP1KXBtvf1XBvz5A4f6iS4QjHQBjoNgBCPRV3FQCbDl0lE9i1vLtrr1YbbZC7dvDbKbJuIXedwAABn5JREFUwJdo/cq7Mpe/pMB4+ak6yvdFOgAuj3QAjIHiWdzTxaoA6oHk9AwWbdrKnHUbOXLuoiYaIirV4PH3P6dkvSaa9C9xfTw8FZcEBhVjjkQ/yNHfGChe/nlazCJ1GJr9p87yxdofWbRpK5k5iqKnVePh7Uu5Qa/S56X/YvZUFPYhkQCOBFEqkA6AAZAOgDFQ/GG0mKUDcCeOXbzMii07WbRpK2di4zTVEtDwQUq8MQPvMpVIwCzTsUlU4aFu9086AAZAOgDGQHHYt8VDOgD/5kxsHCu37WbJ5m0cPndBazl4lShL1MsTCG7V6a/vHcy2UczTLOt5SxRjtqg6ApBBJwZAOgDGQPE8kG+TN3kADp+7wDc79hCz4xcOnT2vtRwAPPwCKDZoJOF9hmHy+ueCK81q53S2jUo+0gWQKCNHXQXDPFE6JNohHQBjoLiOafz1VJE6XIbMnBy2HDzKur0HWLf3gObb+//Aw4PQ9n2IHPounuG3T9l6NNtGtJcHftIHkCggI/GamubOL2QhcTrSATAGil35Excvk5mTg5+3eySP2XPiFO3+O46th46Snau/RUzQ/Y8R+cJ7+FSoftfX5gO/Zlm5318e40gKRmZKEskXTqsxUXhZriROQzoAxiAOyELBuVx2bh7r9h6gc/PG4lXpkP2nzmot4Zb41WpM1LDx+NdtXqB2cXl2LubZKeUpc/5L7p2TP6/FZlV8/JcMpAiUI9EIuXloDGyAYnd+4tcx2O12gXIk94pfjYaUmbaaCvO2FXjy/5P9mVYyCzcHkcSFsdtsbJ81UY2Jk6K0SLRFOgDGYZ/ihidPM2XVGpFanEa+1UpSuusfP/rVbETZ6Wuo8NVOgu5vp8pWnh32ZVqRLpzkXtj2+USunTyixsRuUVok2iKPAIzDFmCg0sZvzllEeHAwfds8IFCSchJS07hwLZ6Tl2M5cfEyv1++yvGLlzl9JZbc/Hyt5Skm4L5WhPcfQWCTh4TavZZv51SOjUre0qeX3J4DK+ax6cO31JrZJkKLRHukA2Ac1uOozqUoIizfamXQ5E/YdvgYYwf0JDI0RKy6m/pJTEsn4XoqVxKTib+eSmxyCrFJKZy/Fs+5uHguXIsnIyvbKf1rgclsIbh1Z8L7D8e3aj2n9XMky0aYxUQRs4wHkPyTtLgrbPpoFPtXfKnWVDawUYAkiQ6QI4WxWA88rNaI2cOD+2tWo1rpaAJ87p7wK89q/WvCTr2Ric1uIzs3j6ycXPKs+aSk3+B6huNJz8pSK8+lMJktBLfqhGeJMoXSn6cJynh5INIH8A0uQkjxUpRv/hB+oUXFGb4F2empnNmxkeuXzystVauY09s2EHv0gKK2VR9+grBylQUrUk9u5g2unTjExV93qAn6u5lvgM4iDEm0RzoAxqI7sFRrERJj4mG2UKdTXx569X0CwsUmIs5KTWHTlNH8uvQL8nO1qbMguSc6AN9pLUIiBukAGAszjgjdcloLkRiXoMgS9J3zPZFVawuxl3LxLPMHPELS+VNC7EmcxnGgOsh4U6MgI4aMhRUYp7UIibFJi7vCgqfaq80kB0DOjXQWPPWYnPxdg3eRk7+hkA6A8ZgP7NFahMTYpMVdZqP6aHK2ffYBCWdOCFAkcTK7kMeLhkMeARiTOjju6rpHfl+JJpgtnozcF49PkLIbI9b8PCY0jCArVSaV0zk5wH3AIa2FSMQidwCMyW/ASK1FSIyNNT+Ps7t+Utz+yqG9cvJ3Dd5ATv6GRDoAxmUa8JXWIiTG5vqV84rbpl65KE6IxFksBqZqLUIikRQcT2AdjsAd+cjHGc+LKOdJHeiXz+2fn5DHiIZG7gAYmzzgcSBGayESw3JGRVt9lmaUgGPh8BiO83+JROLCWIDJOKoGar2qkI9xnhuAH8rxAGJ18P+Qzz+fGYDXHd43iUGQOwDuQT4wAugCqL+8LZE4mAFkqmhvw+GYSvRBEtAHGArkaqxFIpE4gVAcA3cO2q805OO6z1EgEPV4Azt08P9x5ycfmAsUu8t7JZFIDEJp4BMgBe0HIPm41nMIx++PKMKRToAWTzowB6h097dIIpEYEV8c0dhzgfNoPyjJR79PEjAG8Ec83jiOqWRMgHOfK8ACHFv9Aff0zkgMi8wEKPk3IUBlIAoIAu5eD1hidG7giNjfi2O72Jl4APWB8jh+/yTqyMax0o/FUSgsWVs5EolEIpFIJBJN+R9SMGawOifiZQAAAABJRU5ErkJggg==;" parent="1" vertex="1">
          <mxGeometry x="13" y="2724" width="161" height="161" as="geometry" />
        </mxCell>
      </root>
    </mxGraphModel>
  </diagram>
</mxfile>
